<?xml version="1.0" standalone="no"?>
<!DOCTYPE svg PUBLIC "-//W3C//DTD SVG 1.1//EN" "http://www.w3.org/Graphics/SVG/1.1/DTD/svg11.dtd" >
<svg xmlns="http://www.w3.org/2000/svg" xmlns:xlink="http://www.w3.org/1999/xlink" version="1.1">
<metadata>
Created by FontForge 20150804 at Wed Feb  1 09:03:02 2017
 By cloudconvert
</metadata>
<defs>
<font id="MyFontRegular" horiz-adv-x="315" >
  <font-face 
    font-family="My Font"
    font-weight="500"
    font-stretch="normal"
    units-per-em="1000"
    panose-1="0 0 0 0 0 0 0 0 0 0"
    ascent="750"
    descent="-250"
    x-height="474"
    cap-height="694"
    bbox="-105 -248.41 1141 947.219"
    underline-thickness="50"
    underline-position="-100"
    unicode-range="U+0020-2212"
  />
<missing-glyph horiz-adv-x="472" 
d="M0 700v-700h432v700h-432zM50 50v600h332v-600h-332z" />
    <glyph glyph-name=".notdef" horiz-adv-x="472" 
d="M0 700v-700h432v700h-432zM50 50v600h332v-600h-332z" />
    <glyph glyph-name=".notdef" horiz-adv-x="472" 
d="M0 700v-700h432v700h-432zM50 50v600h332v-600h-332z" />
    <glyph glyph-name="space" unicode=" " horiz-adv-x="400" 
 />
    <glyph glyph-name="exclam" unicode="!" horiz-adv-x="246" 
d="M154 131c-24 21 -51 28 -81 19c-23 -5 -38 -14 -46 -26c-9 -13 -15 -25 -18 -36c-4 -13 -6 -27 -5 -42s6 -28 15 -41c11 -15 23 -24 36 -29s28 -7 44 -6c15 1 28 4 39 11c10 6 19 13 26 21c7 9 12 20 15 32c3 11 5 23 4 35c-1 11 -4 23 -9 34s-11 20 -20 28zM18 208
l133 2l13 501l-163 2z" />
    <glyph glyph-name="quotedbl" unicode="&#x22;" horiz-adv-x="520" 
d="M111 700l-110 -292l96 -1l169 291zM316 700l-110 -292l96 -1l169 291z" />
    <glyph glyph-name="numbersign" unicode="#" horiz-adv-x="485" 
d="M447 353l4 77l-63 -1l26 107l-86 1l-25 -109l-88 -2l29 111l-100 3l-27 -116l-107 -2l-2 -77l90 1l-19 -83l-66 -4l-12 -67l62 1l-18 -75l91 -3l20 81l96 3l-18 -78l78 -7l21 87l78 2l6 84l-64 -5l16 69zM269 276l-94 -6l20 78l91 2z" />
    <glyph glyph-name="dollar" unicode="$" horiz-adv-x="547" 
d="M456 337c-17 21 -36 39 -55 54c-20 15 -39 27 -57 36c-19 9 -36 17 -53 22s-31 10 -42 13c-23 7 -41 16 -52 27c-12 11 -13 27 -4 46c7 15 19 22 36 21c16 -2 33 -8 50 -17c19 -11 35 -23 50 -37c8 -7 16 -15 24 -23l87 122c-14 12 -30 24 -47 36c-15 9 -32 19 -51 30
c-19 10 -40 18 -63 24l25 190l-130 -3l17 -180c-16 -2 -32 -6 -48 -12c-35 -15 -63 -33 -84 -56s-36 -48 -45 -73c-9 -26 -13 -52 -12 -78s6 -49 15 -69c9 -21 26 -40 49 -57s48 -31 75 -43c26 -12 51 -22 75 -29l54 -18c23 -8 37 -19 42 -32c4 -14 3 -27 -4 -40
c-15 -25 -60 -24 -137 5c-19 7 -35 16 -50 25s-29 18 -40 26c-13 9 -24 19 -35 29l-45 -225c11 -9 26 -17 43 -26c15 -7 33 -15 54 -24s47 -17 76 -25h3c1 -1 2 -1 3 -1l-25 -177l118 5l-6 160c43 -1 80 8 110 25s54 39 72 64c12 17 22 37 31 61c8 23 13 48 16 75
c2 26 0 52 -6 78s-17 50 -34 71z" />
    <glyph glyph-name="percent" unicode="%" horiz-adv-x="625" 
d="M489 675l-453 -633l59 -28l450 628zM217 597c-35 32 -75 42 -118 29c-16 -5 -29 -10 -40 -17s-20 -15 -27 -23s-13 -16 -16 -24c-4 -9 -7 -17 -9 -25c-5 -19 -7 -40 -6 -61s8 -41 20 -58c15 -21 33 -35 53 -42c19 -7 40 -11 63 -11c21 1 40 7 55 16s29 19 40 29
c10 13 17 29 22 46c4 17 6 34 5 51s-5 33 -12 49s-17 30 -30 41zM170 474c-4 -5 -9 -9 -16 -12s-13 -5 -20 -5c-9 -2 -17 -1 -24 2s-15 8 -22 15c-5 7 -8 15 -7 23s2 16 4 23c1 5 4 12 9 19s13 13 25 16c17 4 32 0 43 -11c11 -9 16 -21 17 -35s-2 -26 -9 -35zM551 274
c-17 15 -36 26 -55 31s-39 4 -60 -3c-16 -4 -29 -9 -40 -16s-20 -15 -27 -23s-13 -16 -17 -24c-5 -9 -8 -17 -10 -25c-5 -19 -7 -40 -6 -61c1 -22 9 -42 23 -59c13 -21 30 -34 50 -41s41 -11 62 -11c23 2 42 7 58 16c15 9 28 18 37 28c11 13 19 29 24 46s6 34 5 51
s-6 33 -13 49s-18 30 -31 42zM503 151c-7 -12 -19 -18 -36 -18c-9 0 -16 1 -23 4c-7 2 -13 7 -18 14s-8 14 -9 23c-1 8 0 15 1 22c2 7 5 14 10 21c5 6 13 11 25 14c9 2 18 2 25 1c7 -2 14 -6 22 -11c8 -9 13 -21 14 -35c1 -15 -2 -26 -11 -35z" />
    <glyph glyph-name="ampersand" unicode="&#x26;" horiz-adv-x="818" 
d="M763 90l-96 79c8 7 16 14 25 21c8 7 16 13 24 20c8 6 15 12 21 17s11 8 14 10l-132 121c-10 -9 -20 -18 -31 -27c-9 -7 -19 -15 -30 -24s-21 -18 -30 -26l-99 81c15 7 31 17 46 28c13 9 26 21 40 35s26 31 36 50c11 21 18 43 20 68s-1 48 -10 71c-9 22 -25 42 -46 59
s-49 29 -84 35c-32 5 -63 7 -93 5c-31 -2 -59 -8 -84 -19s-47 -26 -66 -45s-33 -44 -42 -73c-10 -32 -14 -59 -11 -82c2 -23 7 -42 14 -57c8 -17 19 -32 33 -45c-15 -4 -31 -11 -48 -20c-14 -8 -29 -19 -46 -34s-33 -34 -48 -57c-16 -23 -27 -49 -34 -77
c-7 -29 -6 -57 1 -84s21 -52 44 -75c22 -23 54 -41 95 -54c42 -13 82 -18 121 -17s74 6 107 15c32 8 60 18 85 31c24 13 43 24 56 33l80 -82zM243 151c-15 9 -24 20 -27 33s-2 26 3 39s13 26 25 38c11 12 24 21 38 27l104 -108c-16 -11 -32 -20 -49 -27
c-14 -5 -29 -9 -46 -11s-33 1 -48 9zM417 549c-3 -13 -8 -25 -16 -34c-8 -10 -17 -20 -28 -29c-14 -11 -27 -20 -38 -25c-6 -3 -12 -6 -17 -8c-9 7 -17 15 -22 25c-6 9 -10 19 -13 30s-3 21 -2 32c1 10 3 19 8 27c17 32 44 46 82 42c11 -1 20 -4 27 -8s12 -9 15 -14
c3 -6 4 -12 5 -19c0 -7 0 -13 -1 -19z" />
    <glyph glyph-name="quotesingle" unicode="'" 
d="M111 700l-110 -292l96 -1l169 291z" />
    <glyph glyph-name="parenleft" unicode="(" horiz-adv-x="249" 
d="M89 -42l103 36c-14 33 -26 68 -37 106c-9 32 -18 69 -25 111s-11 86 -11 132c1 45 5 88 14 129s18 77 28 109c12 37 25 71 40 103l-104 36c-17 -33 -33 -70 -47 -110c-12 -34 -23 -74 -33 -119c-10 -46 -15 -95 -16 -148c0 -54 5 -104 14 -151s19 -87 30 -122
c13 -41 27 -78 44 -112z" />
    <glyph glyph-name="parenright" unicode=")" horiz-adv-x="267" 
d="M113 720l-103 -36c13 -33 25 -69 36 -106c9 -33 18 -70 26 -111c7 -42 11 -86 11 -132c-1 -45 -6 -88 -14 -129c-9 -41 -18 -77 -28 -109c-12 -37 -25 -71 -40 -103l104 -36c17 33 33 70 47 110c12 34 23 74 33 120c9 45 15 94 16 147c0 54 -4 104 -13 151
s-20 87 -31 122c-13 41 -27 78 -44 112z" />
    <glyph glyph-name="asterisk" unicode="*" horiz-adv-x="475" 
d="M310 487l108 42l-39 62l-79 -27l45 112l-105 39l-36 -118l-83 87l-64 -59l91 -112l-147 -50l22 -89l130 51l-33 -111l66 -29l50 122l96 -118l94 75z" />
    <glyph glyph-name="plus" unicode="+" horiz-adv-x="499" 
d="M421 269l-8 138l-143 -12l-2 153h-134l9 -164l-142 -13l11 -114l138 4l8 -145l115 3l-1 146z" />
    <glyph glyph-name="comma" unicode="," horiz-adv-x="230" 
d="M111 143l-110 -292l97 -2l169 292z" />
    <glyph glyph-name="hyphen" unicode="-" horiz-adv-x="585" 
d="M1 256l519 16l-4 129l-505 -4z" />
    <glyph glyph-name="period" unicode="." horiz-adv-x="217" 
d="M150 132c-23 21 -50 28 -81 19c-22 -5 -37 -14 -46 -26c-9 -13 -15 -25 -18 -36c-3 -13 -5 -27 -4 -42c0 -15 5 -28 14 -41c11 -15 24 -24 37 -29s28 -7 43 -6s28 4 39 11c11 6 19 13 26 21c7 9 13 20 16 32c3 11 5 23 4 35c-1 11 -4 23 -9 34s-12 20 -21 28z" />
    <glyph glyph-name="slash" unicode="/" horiz-adv-x="664" 
d="M96 -31l536 691l-91 58l-539 -689z" />
    <glyph glyph-name="zero" unicode="0" horiz-adv-x="646" 
d="M535 585c-16 29 -34 52 -54 69c-21 17 -42 30 -65 39s-47 14 -72 17s-49 4 -74 3c-48 -1 -89 -11 -124 -29s-63 -40 -84 -66c-15 -19 -27 -43 -36 -70s-16 -57 -20 -88c-4 -32 -6 -65 -5 -98c0 -33 2 -65 6 -96s10 -60 18 -87c7 -27 16 -49 26 -66s21 -34 34 -51
s28 -32 47 -45s42 -24 69 -33s60 -13 99 -14c45 -1 82 6 112 21s55 34 74 57s33 46 43 71s17 46 22 63c6 21 11 48 16 83c5 34 7 70 8 108c0 38 -3 76 -8 114c-6 37 -17 70 -32 98zM392 327c-1 -19 -3 -38 -6 -57s-9 -35 -16 -49c-7 -15 -17 -26 -30 -35s-29 -14 -49 -13
c-16 0 -30 4 -41 12c-12 8 -22 19 -30 33s-14 30 -18 49s-6 39 -6 60c-1 53 7 92 26 117s46 36 83 35c33 -1 57 -15 71 -41s19 -63 16 -111z" />
    <glyph glyph-name="one" unicode="1" horiz-adv-x="435" 
d="M1 489l130 22l5 -530l235 -1l-14 736l-356 -47v-180z" />
    <glyph glyph-name="two" unicode="2" horiz-adv-x="645" 
d="M1 561l177 -138c7 21 17 39 28 55c9 13 21 26 35 37c13 11 29 16 46 15c13 -1 25 -5 34 -10s16 -12 21 -21s8 -18 9 -28c1 -11 1 -21 -1 -31c-6 -22 -20 -42 -41 -61c-9 -8 -22 -19 -39 -32c-17 -14 -36 -29 -56 -44c-20 -16 -40 -32 -59 -47c-20 -16 -37 -30 -50 -41
c-24 -21 -42 -38 -55 -51s-23 -25 -28 -36c-6 -14 -9 -34 -10 -61s-1 -55 0 -85l580 4v194l-304 -25c25 11 50 25 75 40c21 13 45 29 70 47c25 17 48 37 69 59c48 50 75 103 82 159c7 55 -6 109 -39 160c-13 21 -30 38 -49 51c-20 13 -41 23 -64 30s-47 12 -72 15
c-25 2 -48 3 -70 3c-23 -1 -43 -2 -62 -5s-34 -7 -45 -10c-17 -5 -35 -12 -52 -20c-18 -8 -35 -18 -51 -29c-16 -12 -31 -26 -45 -41s-25 -33 -34 -53z" />
    <glyph glyph-name="three" unicode="3" horiz-adv-x="712" 
d="M1 235c3 -45 14 -83 31 -114c17 -32 39 -58 66 -78c27 -21 57 -36 90 -47s66 -18 101 -21s68 -3 101 0s62 9 88 16c39 11 71 25 98 43c27 17 47 37 62 59c15 21 24 44 28 68s3 48 -3 72c-7 28 -19 51 -35 68s-33 31 -50 41c-20 12 -42 21 -65 27c21 4 39 11 53 21
c14 9 25 21 33 35c8 13 14 28 17 45s4 34 3 53c-1 37 -13 70 -35 100c-23 30 -55 52 -97 65c-21 7 -41 12 -62 17s-42 8 -65 9s-46 1 -71 -1c-25 -3 -51 -8 -80 -16s-53 -20 -74 -35c-21 -16 -39 -32 -53 -48c-17 -19 -31 -39 -42 -60l191 -96c5 15 13 28 23 40
c9 10 20 20 35 29c14 9 32 14 55 17c21 2 39 1 52 -3c13 -5 22 -11 27 -20s7 -18 4 -29s-9 -21 -20 -32c-9 -9 -20 -17 -32 -23c-13 -7 -25 -12 -36 -15c-13 -4 -27 -7 -41 -9l-29 -108c11 0 23 -1 36 -3c11 -1 24 -4 39 -7c14 -4 30 -9 47 -16c15 -6 26 -17 32 -33
s6 -32 1 -48c-6 -16 -18 -30 -35 -41c-17 -12 -42 -17 -73 -16c-27 1 -48 8 -63 21c-16 13 -28 26 -37 41c-10 17 -17 36 -21 57z" />
    <glyph glyph-name="four" unicode="4" horiz-adv-x="742" 
d="M1 97l356 10l-7 -136l219 9l-2 143l118 2l-3 140h-117l-11 450l-178 -2l-20 -449h-143l45 323l-148 -7z" />
    <glyph glyph-name="five" unicode="5" horiz-adv-x="663" 
d="M21 210l-20 -198c43 -11 87 -21 133 -28c19 -3 40 -6 62 -9s45 -6 68 -7c23 -2 47 -3 71 -3c23 0 47 1 70 3c41 3 73 10 97 19c23 9 41 20 53 33c12 12 20 26 24 41c3 15 5 31 5 46s-1 32 -2 53c-1 20 -4 42 -7 65s-8 46 -14 69s-13 44 -22 64c-17 39 -39 70 -64 91
c-26 21 -57 31 -94 29c-19 -1 -39 -3 -60 -5c-21 -3 -41 -5 -60 -8c-22 -3 -44 -6 -66 -10l11 114l310 5l-24 151c-5 -1 -15 -1 -30 -2s-32 -3 -53 -4s-43 -3 -67 -4c-25 -2 -49 -4 -74 -5c-58 -3 -123 -7 -194 -12l-55 -409l108 9c30 3 61 5 93 8c32 2 59 4 81 5
s39 -1 52 -6s22 -12 29 -21s11 -20 14 -32c2 -13 3 -26 3 -39c0 -14 -4 -25 -13 -32s-21 -12 -35 -15s-29 -5 -46 -4c-17 0 -32 1 -47 4c-15 2 -36 5 -63 10s-54 10 -79 15c-31 6 -62 12 -95 19z" />
    <glyph glyph-name="six" unicode="6" horiz-adv-x="629" 
d="M566 236c1 22 -1 44 -5 66c-5 22 -13 43 -26 63c-13 19 -30 37 -52 53c-23 15 -52 28 -88 38c-39 10 -71 13 -98 8s-48 -13 -65 -24c-20 -12 -36 -28 -48 -47c2 8 6 21 11 39c5 17 13 35 24 54c10 18 23 34 38 49s34 23 56 25c20 1 38 0 53 -4s28 -9 39 -14
c12 -7 22 -14 31 -23l89 152c-34 16 -67 28 -100 35s-65 10 -94 10c-30 -1 -58 -4 -83 -11c-26 -7 -49 -17 -70 -28c-20 -11 -40 -26 -59 -44c-19 -19 -37 -41 -53 -67s-30 -56 -41 -89c-11 -34 -18 -72 -21 -114c-2 -21 -3 -43 -3 -65c-1 -22 0 -44 2 -66s6 -44 12 -66
c5 -22 13 -43 24 -63c24 -46 60 -81 108 -104c48 -24 113 -32 194 -25c43 3 78 15 107 36c29 20 52 43 69 70s30 54 37 83s11 53 12 73zM372 206c-9 -32 -22 -53 -39 -64s-38 -15 -62 -10c-9 2 -18 6 -27 12c-9 5 -16 13 -22 23c-7 9 -11 21 -13 34c-3 13 -2 28 2 44
c9 36 25 61 48 76c22 15 46 18 71 9c24 -9 39 -25 46 -47c6 -22 5 -48 -4 -77z" />
    <glyph glyph-name="seven" unicode="7" horiz-adv-x="687" 
d="M13 513h348l-281 -532h281l280 720l-640 -4z" />
    <glyph glyph-name="eight" unicode="8" horiz-adv-x="554" 
d="M500 214c-5 46 -19 82 -40 108c-22 25 -47 44 -76 57c23 15 42 37 55 65c13 27 16 64 11 110c-4 37 -14 67 -31 89s-36 39 -59 50s-47 18 -72 21s-49 4 -70 3s-44 -5 -67 -12c-23 -8 -44 -20 -63 -35s-35 -35 -46 -60c-12 -25 -17 -54 -16 -89c2 -38 10 -69 25 -94
c14 -25 33 -44 56 -57c-15 -9 -30 -19 -43 -31s-25 -26 -34 -42c-10 -16 -18 -34 -23 -54s-7 -42 -6 -66c2 -41 10 -75 25 -102c14 -28 32 -50 55 -67s48 -28 77 -34c29 -7 58 -9 89 -8c30 1 61 5 94 11c32 6 61 18 86 36c25 17 45 42 60 74c14 32 18 74 13 127zM241 580
c9 1 18 0 27 -1s17 -4 24 -9s13 -11 18 -19s7 -18 8 -31c1 -22 -5 -40 -20 -53c-15 -14 -34 -21 -57 -21c-15 0 -27 2 -36 7c-9 4 -17 9 -22 16c-6 6 -10 13 -12 21c-3 7 -4 15 -4 22c0 17 6 33 18 46s31 21 56 22zM239 129c-18 0 -33 3 -44 8c-12 5 -21 12 -28 20
s-12 17 -15 27c-3 9 -4 19 -4 28c-1 21 6 40 21 56s38 25 70 26c11 1 22 0 33 -1c11 -2 21 -6 30 -11s17 -13 23 -23s10 -23 11 -38c1 -27 -7 -49 -25 -66c-19 -17 -43 -26 -72 -26z" />
    <glyph glyph-name="nine" unicode="9" horiz-adv-x="613" 
d="M1 452c-1 -22 1 -44 5 -66s12 -43 25 -62c12 -20 29 -38 52 -54c22 -16 51 -29 87 -39c39 -11 71 -13 98 -8s49 13 66 24c20 12 36 28 48 47c-2 -7 -6 -20 -11 -37c-5 -18 -13 -36 -23 -55c-11 -19 -24 -35 -39 -50s-34 -24 -56 -26c-21 -1 -38 0 -53 5
c-15 4 -28 9 -38 14c-12 7 -22 14 -31 23l-89 -153c34 -16 67 -27 100 -34s64 -11 94 -10c29 1 57 5 83 12s49 16 69 27c19 11 39 26 58 45c19 18 37 40 53 66s30 56 41 90c11 33 19 71 22 112c3 43 4 87 1 132s-15 87 -36 128c-24 47 -60 83 -107 106
c-48 23 -113 31 -194 24c-43 -3 -79 -15 -107 -35c-29 -21 -52 -44 -69 -71s-30 -54 -37 -82c-7 -29 -11 -53 -12 -73zM194 480c10 32 23 54 40 65s37 14 62 10c9 -2 18 -6 27 -11c9 -6 16 -14 22 -23c6 -10 10 -21 13 -34c2 -13 1 -28 -3 -44c-9 -37 -24 -62 -47 -77
s-46 -17 -71 -8s-40 24 -46 46c-7 22 -6 47 3 76z" />
    <glyph glyph-name="colon" unicode=":" horiz-adv-x="222" 
d="M69 152c-22 -5 -37 -14 -46 -26c-9 -13 -15 -25 -18 -36c-3 -13 -5 -27 -4 -42c0 -15 5 -28 14 -41c11 -15 24 -24 37 -29s28 -7 43 -6s28 4 39 11c11 6 19 13 26 21c7 9 13 20 16 32c3 11 5 23 4 35c-1 11 -4 23 -9 34s-12 20 -21 28c-23 21 -50 28 -81 19zM95 242
c15 1 28 4 39 10s19 13 26 22s13 20 16 32c3 11 5 23 4 35c-1 11 -4 23 -9 34s-12 20 -21 28c-23 21 -50 28 -81 19c-22 -5 -37 -14 -46 -26c-9 -13 -15 -25 -18 -36c-3 -13 -5 -27 -4 -42c0 -15 5 -28 14 -41c11 -15 24 -24 37 -29s28 -7 43 -6z" />
    <glyph glyph-name="semicolon" unicode=";" horiz-adv-x="272" 
d="M192 242c15 1 28 4 39 10s19 13 26 22s13 20 16 32c3 11 5 23 4 35c-1 11 -4 23 -9 34s-12 20 -21 28c-23 21 -50 28 -80 19c-23 -5 -38 -14 -47 -27s-15 -24 -18 -35c-3 -13 -5 -27 -4 -42c0 -15 5 -28 14 -41c11 -15 24 -24 37 -29s28 -7 43 -6zM112 143l-111 -292
l96 -2l170 292z" />
    <glyph glyph-name="less" unicode="&#x3c;" horiz-adv-x="696" 
d="M553 705l-552 -331l476 -395l68 155l-312 226l400 161z" />
    <glyph glyph-name="equal" unicode="=" horiz-adv-x="527" 
d="M11 164l438 2v137l-448 -3zM7 365l434 -1l10 131l-446 -3z" />
    <glyph glyph-name="greater" unicode="&#x3e;" horiz-adv-x="702" 
d="M1 537l411 -177l-313 -252l70 -147l481 413l-558 341z" />
    <glyph glyph-name="question" unicode="?" horiz-adv-x="495" 
d="M189 150c-23 -6 -38 -15 -47 -27s-15 -24 -18 -35c-3 -13 -5 -27 -4 -42s6 -28 15 -41c11 -15 23 -24 36 -29s28 -7 43 -6s28 4 39 10s19 13 26 22s13 19 16 31c3 11 5 23 4 35s-4 24 -9 35s-12 20 -21 28c-23 21 -50 28 -80 19zM230 729c-41 0 -76 -6 -104 -19
c-29 -13 -52 -31 -70 -53c-18 -23 -31 -49 -39 -79c-9 -30 -14 -62 -16 -95l157 -3c-1 25 2 48 7 68c2 9 5 17 9 25c3 8 8 15 13 22c5 6 12 11 20 15c7 3 16 5 26 5c18 -1 32 -5 42 -13c9 -8 16 -17 21 -28c4 -11 6 -23 7 -36s1 -24 2 -33c1 -15 0 -30 -3 -44
s-11 -27 -23 -38s-30 -20 -53 -27s-55 -10 -95 -10l1 -180l139 4v104c36 3 68 11 96 25c12 6 24 14 35 23s22 20 31 33s16 28 21 46c5 17 7 37 7 60c-1 38 -5 71 -14 100c-9 28 -22 52 -40 71c-19 19 -42 33 -71 43c-29 9 -65 14 -106 14z" />
    <glyph glyph-name="at" unicode="@" horiz-adv-x="799" 
d="M707 556c-18 33 -40 60 -65 82c-26 22 -54 39 -85 52s-65 21 -100 25c-36 3 -73 3 -111 -2c-41 -5 -83 -17 -126 -35s-82 -44 -115 -77c-34 -33 -61 -75 -80 -124c-20 -50 -28 -109 -23 -178c4 -57 15 -104 32 -143s38 -71 63 -96s52 -44 83 -57c30 -13 61 -22 92 -27
c73 -12 155 -6 245 17l-54 124c-53 -13 -100 -18 -141 -13c-41 4 -76 15 -104 34c-29 19 -50 44 -65 75s-24 67 -25 108s4 77 15 110c11 32 27 60 48 83s45 42 73 56c28 13 58 22 89 25s58 4 83 2s47 -6 66 -13s36 -17 51 -28c15 -12 28 -26 40 -41c10 -13 19 -30 28 -51
c8 -21 14 -42 17 -62c3 -21 2 -39 -1 -54c-3 -16 -12 -25 -25 -27c-11 -1 -19 1 -26 8s-12 15 -16 25s-7 21 -8 32c-2 11 -3 21 -4 30l-7 106l-132 2v-33c-5 3 -11 6 -19 9c-7 2 -17 4 -29 6c-12 1 -27 2 -46 1c-47 -3 -82 -19 -103 -47c-22 -29 -33 -71 -34 -127
c-1 -55 9 -95 32 -118s61 -35 115 -34c25 0 46 3 64 8c17 5 32 10 44 17c12 6 21 12 28 19c6 6 10 10 12 13c5 -5 12 -11 20 -16c8 -6 18 -11 29 -15c11 -5 23 -8 38 -10c14 -2 30 -2 48 0c39 3 69 16 92 38s38 50 46 84c7 33 7 71 -1 112c-9 41 -25 83 -48 125zM354 310
c-19 -1 -32 4 -41 15s-12 22 -11 33c0 5 1 10 3 15c1 5 4 9 9 14c4 4 10 8 17 11s17 4 28 4c13 1 26 -2 38 -7c11 -5 17 -16 18 -31c2 -15 -2 -28 -13 -38c-11 -11 -27 -16 -48 -16z" />
    <glyph glyph-name="A" unicode="A" horiz-adv-x="776" 
d="M466 -20l250 4l-242 728l-279 -21l-195 -726l241 7l26 135l169 11zM280 267l48 251l56 -247z" />
    <glyph glyph-name="B" unicode="B" horiz-adv-x="640" 
d="M378 372c25 9 47 22 67 37c17 13 33 31 48 52s23 47 25 78s-1 57 -10 78s-21 37 -35 50c-14 12 -29 21 -45 26c-17 5 -32 7 -46 7h-29h-48h-58c-21 -1 -42 -1 -63 -1c-49 -1 -103 -1 -161 -1l-22 -723c49 1 96 2 142 3c19 1 39 1 60 2s41 1 61 2c20 0 39 0 57 1
c17 1 33 1 47 2c27 1 53 5 77 11c24 5 45 16 63 31s33 37 44 64s17 63 18 107c1 22 -2 42 -7 59s-12 31 -21 44c-9 12 -19 22 -30 31c-12 8 -24 15 -36 20c-29 12 -61 19 -98 20zM214 130l5 197c23 2 43 0 61 -5c8 -2 16 -5 23 -9s14 -9 20 -15c6 -7 11 -15 15 -24
c3 -9 5 -20 5 -33s-2 -24 -5 -33c-4 -10 -9 -19 -15 -26c-6 -8 -13 -15 -20 -20c-8 -5 -16 -10 -24 -14c-19 -9 -41 -15 -65 -18zM338 511c-1 -23 -8 -40 -20 -51s-25 -20 -39 -25c-17 -6 -35 -9 -55 -8l1 154c21 3 41 2 58 -2c15 -3 28 -10 40 -20c11 -11 16 -27 15 -48z
" />
    <glyph glyph-name="C" unicode="C" horiz-adv-x="645" 
d="M1 332c1 -31 4 -63 11 -98c6 -35 18 -69 37 -101c19 -33 46 -62 81 -89s83 -47 142 -60c49 -11 93 -16 132 -14c38 1 71 5 98 12c32 7 60 18 83 31l-41 223c-55 -23 -105 -35 -149 -38c-19 -1 -37 0 -55 3c-19 3 -35 9 -49 18c-15 9 -27 23 -36 40s-14 40 -15 67
c-1 37 4 66 16 89c12 22 27 39 46 51c19 11 40 18 63 21c23 2 46 1 67 -3s41 -10 58 -18c17 -9 29 -18 36 -27l33 230c-29 12 -61 21 -94 27c-29 5 -62 8 -99 8s-77 -6 -118 -19s-77 -32 -108 -57s-57 -54 -78 -86s-37 -66 -47 -102c-11 -37 -15 -73 -14 -108z" />
    <glyph glyph-name="D" unicode="D" horiz-adv-x="705" 
d="M577 584c-14 25 -32 45 -54 61c-22 15 -46 27 -73 36c-27 8 -55 14 -84 17c-30 3 -59 4 -87 4c-21 0 -46 0 -77 -1s-61 -1 -91 -2c-35 -1 -70 -1 -107 -2l-2 -724c35 0 69 1 102 2c29 1 59 3 91 4c31 1 59 2 84 5c90 7 163 31 220 71c57 39 94 94 111 164
c18 73 23 140 16 202c-8 62 -24 116 -49 163zM403 268c-15 -32 -38 -55 -69 -68c-32 -13 -69 -23 -112 -30l-6 366h18c5 0 11 0 17 1h18c12 0 24 -1 35 -2s22 -4 33 -9c10 -5 20 -12 29 -21s18 -22 26 -37c17 -32 27 -65 29 -99c2 -35 -4 -68 -18 -101z" />
    <glyph glyph-name="E" unicode="E" horiz-adv-x="529" 
d="M6 -22l455 2l1 210l-239 5l-1 117l162 1l1 134l-169 2l-2 105l221 -2l-5 149l-429 -9z" />
    <glyph glyph-name="F" unicode="F" horiz-adv-x="497" 
d="M11 -18l212 4l4 323l152 7l-2 146h-154l-2 83h211l1 153l-428 -4z" />
    <glyph glyph-name="G" unicode="G" horiz-adv-x="734" 
d="M421 452l202 90c-8 15 -18 29 -29 44c-9 13 -21 26 -35 41s-30 28 -49 41c-18 12 -40 22 -66 31s-54 14 -84 17s-61 1 -93 -4c-33 -6 -64 -17 -94 -33c-61 -33 -107 -83 -137 -152s-40 -153 -30 -252c5 -49 17 -92 35 -130c17 -38 40 -70 68 -96c27 -26 59 -46 95 -59
c35 -14 74 -21 115 -21c45 0 83 4 115 13s60 21 84 36c23 15 43 32 60 52c16 20 30 41 43 62c15 23 26 49 33 77c7 27 12 53 15 76c3 27 4 54 3 81l-323 6l2 -117l95 -4c-4 -15 -11 -28 -21 -39c-9 -9 -20 -18 -35 -26c-15 -9 -35 -13 -59 -12c-18 0 -35 3 -50 10
c-16 6 -30 16 -42 29s-22 30 -29 51c-8 20 -12 44 -13 73c-2 57 6 103 23 136s44 53 80 59c18 3 34 2 47 -3s25 -12 35 -21s18 -19 25 -29c6 -11 11 -20 14 -27z" />
    <glyph glyph-name="H" unicode="H" horiz-adv-x="696" 
d="M20 -20h203l6 311l143 3l8 -314l239 2l-5 719h-226v-230l-164 -1l-4 235l-216 -7z" />
    <glyph glyph-name="I" unicode="I" horiz-adv-x="335" 
d="M18 690l-22 -699l242 -7l-2 710z" />
    <glyph glyph-name="J" unicode="J" horiz-adv-x="532" 
d="M281 685c1 -72 3 -137 4 -194c1 -25 1 -49 2 -72c0 -24 0 -46 1 -65c0 -20 0 -36 1 -49v-23c0 -11 -1 -24 -3 -39s-9 -29 -22 -40c-13 -12 -27 -20 -40 -23c-13 -4 -31 -4 -53 -1c-9 1 -19 4 -28 8s-18 8 -26 12l-27 15l-91 -146c13 -9 27 -19 44 -28
c14 -8 31 -16 51 -25c19 -9 41 -17 66 -24c52 -15 100 -17 143 -6s80 31 113 59c16 14 29 31 39 52c9 20 16 40 21 61c5 20 8 39 9 57c1 17 2 30 2 38v28c-1 15 -1 33 -2 54s-1 45 -2 71s-1 52 -2 79c-2 62 -4 131 -6 208z" />
    <glyph glyph-name="K" unicode="K" horiz-adv-x="702" 
d="M3 -19h254l-3 253l161 -258l238 11l-227 353l210 343l-227 6l-163 -249l-9 257l-211 3z" />
    <glyph glyph-name="L" unicode="L" horiz-adv-x="495" 
d="M2 -20h422l-1 228l-189 -1l1 498l-222 -6z" />
    <glyph glyph-name="M" unicode="M" horiz-adv-x="899" 
d="M2 -13l227 -17l22 398l82 -344l164 2l84 356l35 -398l228 -3l-135 719l-225 -20l-78 -351l-86 351h-213z" />
    <glyph glyph-name="N" unicode="N" horiz-adv-x="720" 
d="M2 -19l213 8l5 373l206 -376l203 -3l7 712l-211 -9l9 -356l-195 358l-226 7z" />
    <glyph glyph-name="O" unicode="O" horiz-adv-x="782" 
d="M664 571c-21 30 -44 55 -69 74s-50 33 -77 44s-56 18 -85 22c-29 3 -60 4 -91 3s-59 -6 -85 -13c-27 -7 -51 -17 -73 -28c-22 -12 -42 -25 -59 -40c-18 -15 -33 -31 -46 -48c-29 -37 -49 -79 -62 -126s-18 -94 -15 -141c3 -48 15 -94 34 -139s47 -83 83 -115
c95 -85 203 -112 326 -79c45 12 82 28 113 47s56 40 76 63c19 23 35 46 46 71s19 48 25 70c7 27 13 54 17 83c3 29 4 58 2 87c-3 29 -9 57 -18 85s-23 55 -42 80zM479 315c-19 -51 -44 -85 -75 -100s-67 -18 -108 -9c-15 3 -29 10 -43 21c-14 10 -25 23 -34 40
c-9 16 -15 35 -18 57c-3 21 0 45 8 71c9 29 20 54 35 75c14 20 30 36 48 47s37 17 58 18s41 -2 61 -11c19 -8 35 -20 47 -35c12 -16 21 -34 26 -53s8 -40 7 -61s-5 -41 -12 -60z" />
    <glyph glyph-name="P" unicode="P" horiz-adv-x="630" 
d="M507 609c-17 21 -37 38 -60 50s-47 21 -71 27c-24 5 -47 9 -70 10s-41 2 -56 2h-53c-27 -1 -55 -1 -84 -2c-34 -1 -71 -1 -111 -2l6 -720l224 1l-2 201c28 3 56 7 84 14c27 7 53 15 78 26c24 10 46 22 67 37s38 31 53 50c15 20 27 43 35 69s12 53 12 81
c0 27 -4 55 -13 82s-22 51 -39 74zM225 341l-4 207c28 2 53 0 75 -5c19 -5 36 -14 51 -27s23 -34 23 -62c0 -26 -8 -47 -23 -62s-32 -27 -50 -34c-21 -9 -45 -14 -72 -17z" />
    <glyph glyph-name="Q" unicode="Q" horiz-adv-x="781" 
d="M577 -39l142 113l-74 73c7 9 13 19 18 29c5 9 10 19 14 29c12 27 21 56 26 87s6 62 4 94c-2 31 -8 62 -17 92c-9 29 -23 56 -40 81c-22 31 -45 56 -69 76c-25 19 -51 34 -78 45s-56 18 -85 22c-30 3 -61 4 -94 3c-63 -2 -116 -15 -159 -39s-78 -54 -103 -89
s-42 -75 -51 -120s-12 -89 -7 -134s16 -88 34 -129s42 -75 71 -102c46 -43 99 -70 159 -82c60 -13 123 -10 190 7c19 4 38 11 57 20zM277 202c-19 4 -37 13 -52 26s-28 30 -37 49c-10 19 -16 41 -18 66c-3 24 0 50 8 77c9 30 22 54 39 72s37 31 58 39s43 11 66 10
c23 -2 45 -7 66 -16c20 -8 37 -20 50 -37s23 -35 30 -55s10 -41 10 -62c-1 -22 -5 -42 -12 -61c-1 -3 -3 -6 -4 -9s-3 -5 -4 -8l-47 47l-112 -93l41 -48c-27 -5 -54 -4 -82 3z" />
    <glyph glyph-name="R" unicode="R" horiz-adv-x="683" 
d="M287 192l131 -238l218 65l-179 239c9 6 19 13 28 20s16 16 23 25c15 20 27 43 35 69c7 26 11 53 11 81c-1 28 -5 56 -14 83s-21 52 -38 75c-17 21 -37 38 -59 50c-23 11 -46 20 -69 26c-23 5 -46 9 -67 10c-22 1 -41 2 -56 2h-250l2 -718l215 1l-1 199c11 1 23 3 35 5
c11 2 23 4 35 6zM202 336l-2 208c27 3 51 2 73 -3c19 -5 36 -13 51 -26s23 -34 23 -62c0 -31 -8 -55 -23 -71c-15 -17 -32 -28 -50 -35c-21 -8 -45 -12 -72 -11z" />
    <glyph glyph-name="S" unicode="S" horiz-adv-x="570" 
d="M44 32c13 -7 29 -14 46 -21c15 -6 34 -12 56 -18s48 -12 77 -17c35 -6 67 -7 96 -4c28 3 53 10 75 20c21 10 40 23 56 38c15 15 28 31 38 49c10 17 18 38 24 63s9 50 9 77c-1 26 -5 52 -14 77s-23 47 -42 66s-39 35 -60 48c-21 12 -41 22 -60 30c-19 7 -37 13 -54 16
s-31 6 -43 8c-23 5 -41 12 -54 22s-15 25 -8 46c5 15 16 23 33 24c16 0 33 -4 51 -12c9 -4 19 -9 28 -15s18 -12 25 -17c9 -7 17 -13 26 -20l74 131c-32 23 -65 40 -100 53c-15 5 -30 10 -47 14s-34 6 -51 7s-35 -1 -52 -4c-18 -3 -35 -9 -52 -18c-34 -18 -60 -39 -78 -64
c-19 -25 -31 -50 -37 -77c-7 -27 -8 -53 -4 -78s11 -47 22 -66c11 -21 29 -38 54 -52s51 -25 78 -34s54 -17 79 -22s43 -9 55 -12c24 -6 39 -15 44 -28s5 -26 0 -39s-20 -21 -43 -22c-23 -2 -54 2 -93 12c-19 5 -37 12 -53 19s-30 15 -41 22c-13 8 -26 17 -37 26z" />
    <glyph glyph-name="T" unicode="T" horiz-adv-x="567" 
d="M-1 495l174 3l-17 -523l247 3l-29 530l137 -2l-17 194l-486 -5z" />
    <glyph glyph-name="U" unicode="U" horiz-adv-x="713" 
d="M37 203c7 -46 20 -84 40 -114c19 -31 43 -55 71 -72s59 -30 92 -37s67 -11 101 -11c64 0 116 9 155 26s70 39 92 64c21 25 36 53 44 82c7 29 11 56 12 79v45c0 19 0 41 -1 66c-1 24 -1 50 -2 77s-1 55 -2 82c-2 63 -4 131 -6 204l-240 -18c1 -80 3 -152 4 -216
c1 -27 1 -54 2 -80c0 -27 0 -50 1 -71s1 -39 2 -52v-22c0 -3 0 -9 -1 -17c-1 -9 -3 -17 -6 -26c-4 -9 -10 -18 -18 -25c-9 -7 -20 -11 -35 -11s-27 3 -36 10s-15 15 -19 24s-6 18 -7 27s-2 15 -2 18c0 1 0 9 -1 24c-1 14 -2 32 -3 55c-1 22 -3 47 -4 75c-2 28 -4 57 -5 86
c-3 68 -7 145 -12 231l-252 -19c5 -77 9 -149 14 -214l6 -84c2 -28 4 -54 6 -78c2 -25 4 -46 6 -65c1 -19 3 -34 4 -43z" />
    <glyph glyph-name="V" unicode="V" horiz-adv-x="764" 
d="M-1 688l262 -705l257 2l188 716l-229 -1l-96 -476l-112 469z" />
    <glyph glyph-name="W" unicode="W" horiz-adv-x="1195" 
d="M-1 688l240 -707l236 4l91 320l93 -324l214 -4l268 716h-269l-94 -408l-102 383l-198 -5l-92 -359l-111 394z" />
    <glyph glyph-name="X" unicode="X" horiz-adv-x="940" 
d="M0 698l243 -337l-240 -380l308 -2l111 224l106 -216l314 -5l-240 375l233 325l-323 4l-82 -234l-93 242z" />
    <glyph glyph-name="Y" unicode="Y" horiz-adv-x="735" 
d="M0 662l270 -379l-7 -311l240 12l-19 299l205 416l-254 1l-66 -243l-106 219z" />
    <glyph glyph-name="Z" unicode="Z" horiz-adv-x="694" 
d="M640 700h-578v-200h223l-285 -521h615l-14 214l-258 -4z" />
    <glyph glyph-name="bracketleft" unicode="[" horiz-adv-x="287" 
d="M230 48l-95 -8l-19 599l114 5v79h-229l24 -766l212 12z" />
    <glyph glyph-name="backslash" unicode="\" horiz-adv-x="664" 
d="M534 -32l97 60l-542 690l-88 -57z" />
    <glyph glyph-name="bracketright" unicode="]" horiz-adv-x="293" 
d="M-20 720l2 -82l111 1l-13 -600l-95 13l-3 -94l216 -4l14 770z" />
    <glyph glyph-name="asciicircum" unicode="^" horiz-adv-x="768" 
d="M387 712l-419 -483l184 -95l218 349l172 -335l157 41z" />
    <glyph glyph-name="underscore" unicode="_" horiz-adv-x="577" 
d="M-20 -22l519 16l-4 129l-505 -4z" />
    <glyph glyph-name="a" unicode="a" horiz-adv-x="649" 
d="M586 -22l-42 525l-199 2v-49c-7 5 -17 10 -29 14c-11 3 -26 6 -44 9c-18 2 -41 2 -70 1c-70 -3 -121 -27 -153 -71s-48 -107 -49 -190c0 -42 4 -77 13 -106c8 -29 20 -52 37 -70c16 -18 36 -31 60 -39s51 -12 81 -12c30 -1 55 1 76 5c21 3 37 8 50 13c15 6 26 13 35 20
l1 -44zM238 183c-14 0 -26 2 -36 6c-11 4 -19 10 -25 17c-7 7 -11 14 -14 23c-3 8 -4 16 -4 24s1 16 4 24c3 7 7 14 14 21c6 6 15 11 26 16c11 4 25 6 42 7c10 0 20 -1 30 -2c10 -2 19 -5 28 -9c8 -5 15 -11 20 -18s8 -17 9 -28c1 -23 -6 -42 -22 -57
c-17 -16 -41 -24 -72 -24z" />
    <glyph glyph-name="b" unicode="b" horiz-adv-x="648" 
d="M580 255c-4 39 -13 72 -26 99s-30 49 -49 66c-20 17 -42 29 -66 37c-25 7 -49 11 -74 11c-26 1 -49 -1 -68 -5s-36 -9 -49 -14c-15 -6 -28 -13 -39 -20l-1 -2l-2 210l-195 -3l-9 -655l208 -1v28c2 -1 9 -4 21 -8c12 -5 28 -9 47 -13s42 -6 67 -7s53 3 82 10
c57 13 99 41 125 83c26 41 35 103 28 184zM394 214c-1 -13 -5 -24 -10 -32c-6 -8 -13 -14 -21 -18c-9 -5 -18 -7 -28 -8s-20 -2 -30 -1c-29 1 -51 9 -64 23c-14 14 -21 31 -21 50c1 17 8 33 21 47c13 13 35 20 68 19c13 0 25 -2 36 -5c11 -4 20 -9 28 -16
c7 -7 13 -16 17 -25c4 -10 5 -21 4 -34z" />
    <glyph glyph-name="c" unicode="c" horiz-adv-x="623" 
d="M481 281l65 166c-17 15 -37 28 -61 40c-21 10 -47 19 -78 27c-32 8 -70 12 -114 11c-43 -1 -83 -8 -119 -23c-37 -15 -68 -35 -94 -60s-46 -55 -60 -90c-15 -35 -21 -73 -20 -114s6 -78 17 -110c11 -33 27 -60 50 -82s52 -39 88 -51s80 -18 131 -19c52 -1 95 1 130 8
c34 6 61 13 82 20c24 9 43 19 56 30l-81 152c-14 -9 -29 -16 -46 -23c-15 -5 -31 -10 -50 -14s-40 -5 -61 -3c-43 4 -73 16 -90 35c-18 19 -26 45 -25 76c1 15 4 29 10 44c6 14 15 26 28 37c13 10 28 17 47 22c19 4 41 3 67 -2c25 -5 46 -12 63 -21s30 -18 39 -26
c11 -10 20 -20 26 -30z" />
    <glyph glyph-name="d" unicode="d" horiz-adv-x="664" 
d="M372 -19l208 -1l-5 659l-195 -2l-7 -206c-11 7 -24 14 -39 20c-13 5 -30 10 -49 14c-20 4 -43 6 -68 6c-25 -1 -50 -5 -74 -12c-24 -8 -46 -20 -65 -37c-20 -17 -37 -38 -50 -65s-22 -60 -26 -99c-7 -81 2 -143 28 -185s68 -70 125 -83c31 -7 59 -10 86 -9
c26 1 49 3 68 7c23 5 44 11 63 20v-27zM254 156c-14 0 -26 2 -35 6c-10 4 -18 9 -25 16s-11 14 -14 23c-3 8 -4 16 -4 23c0 8 1 16 4 24c3 7 7 14 13 21c6 6 14 11 25 16c11 4 25 7 42 8c10 1 20 0 30 -1c10 -2 19 -5 27 -9c8 -5 15 -11 20 -18s8 -16 9 -27
c2 -22 -5 -41 -21 -57s-40 -24 -71 -25z" />
    <glyph glyph-name="e" unicode="e" horiz-adv-x="648" 
d="M361 128c-44 -7 -79 -2 -105 14s-43 40 -50 72l378 57c-1 9 -3 20 -6 32c-3 10 -7 22 -12 36s-12 29 -21 45s-21 32 -37 48s-36 30 -61 42s-54 21 -87 27c-34 6 -73 7 -118 3c-45 -5 -83 -16 -114 -34c-32 -18 -58 -40 -77 -66c-20 -27 -34 -56 -42 -87s-10 -62 -7 -93
s10 -61 22 -91c11 -31 29 -58 52 -81s52 -42 88 -56c35 -14 79 -20 130 -19c59 1 107 9 144 24c37 14 67 29 88 46c25 19 43 41 55 66l-100 90c-8 -12 -18 -23 -30 -33c-10 -9 -22 -17 -37 -25s-33 -14 -53 -17zM293 388c21 1 39 -2 53 -9c14 -8 25 -17 33 -26
c9 -11 16 -24 21 -39l-204 -23c1 17 5 32 12 46c6 11 16 22 29 33s31 17 56 18z" />
    <glyph glyph-name="f" unicode="f" horiz-adv-x="569" 
d="M452 223l-1 128l-154 1c-2 18 -3 30 -3 37c-1 21 0 38 4 49c3 11 11 21 24 30c7 3 15 5 25 5c10 -1 20 -3 30 -7c13 -6 25 -13 35 -21l15 -12l83 142c-11 8 -23 16 -36 23c-11 7 -25 14 -40 22c-15 7 -33 14 -52 20c-11 4 -26 7 -45 9c-19 1 -40 1 -61 -1
c-21 -3 -42 -8 -63 -16c-21 -9 -38 -21 -52 -38c-13 -15 -22 -32 -28 -49c-7 -18 -11 -36 -13 -54c-3 -18 -4 -36 -4 -54v-51v-32l-116 2v-133h115c-1 -31 -1 -60 -2 -89s-1 -55 -2 -78c-1 -27 -1 -52 -2 -76l223 -1l-16 244h136z" />
    <glyph glyph-name="g" unicode="g" horiz-adv-x="654" 
d="M557 515l-199 22l-4 -52c-5 3 -14 6 -26 9c-10 3 -24 5 -42 6c-19 1 -42 1 -71 1c-37 -1 -69 -9 -96 -23s-50 -34 -67 -57c-17 -24 -30 -52 -38 -85c-9 -33 -13 -69 -14 -109c-1 -38 3 -71 12 -98s22 -49 39 -65c17 -15 40 -28 67 -34c27 -7 58 -9 95 -9c30 1 55 4 76 8
c20 3 36 6 49 10c15 5 26 10 34 15c4 -17 5 -33 4 -48c-1 -13 -5 -26 -11 -39s-17 -23 -32 -31c-13 -6 -27 -9 -42 -10c-16 -1 -32 0 -48 4c-17 3 -33 10 -49 18c-16 9 -31 20 -45 34l-88 -180c22 -11 46 -20 73 -28c23 -6 49 -13 78 -17c29 -5 61 -7 95 -4s64 7 89 15
c25 6 47 15 65 25s33 21 46 32c12 11 22 22 31 33c16 21 27 46 32 74s7 58 7 90c0 9 0 22 -1 41c-1 17 -1 39 -2 64s-2 52 -3 81s-3 57 -4 86c-3 67 -6 141 -10 221zM259 183c-14 0 -26 2 -37 6c-11 3 -19 8 -26 15s-13 14 -16 22c-4 7 -6 15 -5 23s3 16 6 24
c3 7 8 14 15 21c7 6 16 11 28 16c11 4 26 6 43 7c20 1 38 -3 55 -11s26 -23 27 -45c1 -23 -5 -41 -20 -55c-15 -15 -38 -22 -70 -23z" />
    <glyph glyph-name="h" unicode="h" horiz-adv-x="650" 
d="M21 610l-19 -628l196 -2c1 23 2 46 3 68c1 19 1 37 2 56c0 18 0 32 1 42c1 24 2 44 3 60s3 30 6 43c5 17 14 29 26 36c11 7 23 10 36 10c14 0 27 -4 39 -11c11 -8 19 -24 22 -47c2 -11 3 -26 3 -44c0 -19 0 -38 1 -58v-39c-1 -17 -1 -33 -1 -49c-1 -19 -1 -38 -1 -59
l242 -1c-2 35 -5 70 -9 105c-3 30 -8 62 -14 95c-7 33 -15 64 -26 92c-10 27 -21 50 -32 71c-12 21 -26 38 -41 52c-15 13 -33 24 -54 31s-45 11 -74 12c-28 1 -50 -1 -67 -6s-30 -10 -39 -16c-11 -7 -18 -15 -23 -24l2 210z" />
    <glyph glyph-name="i" unicode="i" 
d="M22 468l-22 -488l220 1l4 482zM29 646l-1 -129l198 -1l2 129z" />
    <glyph glyph-name="j" unicode="j" horiz-adv-x="304" 
d="M112 518l198 1l-1 129l-198 -1zM312 467l-200 -2c1 -72 3 -137 4 -196c1 -25 1 -51 2 -75c0 -25 0 -48 1 -68c1 -21 1 -40 2 -54v-29c1 -19 -1 -36 -4 -51s-13 -27 -28 -37c-8 -6 -17 -10 -27 -13c-10 -4 -20 -6 -29 -8c-11 -3 -22 -4 -33 -5l6 -174c26 1 52 4 77 8
s48 9 71 17c23 6 44 15 63 25s36 23 50 36c15 16 27 31 35 48c7 15 13 30 16 45c3 14 5 28 5 40v30v24c-1 15 -1 33 -1 56c-1 22 -1 46 -2 74c-1 27 -1 56 -2 84c-2 66 -4 141 -6 225z" />
    <glyph glyph-name="k" unicode="k" horiz-adv-x="633" 
d="M574 -19l-235 277l166 241l-166 10l-130 -152l-3 306l-193 5l-14 -689h216l-3 174l141 -172h221z" />
    <glyph glyph-name="l" unicode="l" horiz-adv-x="348" 
d="M37 722l-37 -741l254 -1l-6 730z" />
    <glyph glyph-name="m" unicode="m" horiz-adv-x="1039" 
d="M912 299c-13 57 -39 102 -78 135s-88 48 -147 45c-19 -1 -37 -4 -52 -9c-16 -5 -30 -11 -41 -18c-12 -7 -22 -15 -31 -23s-16 -15 -21 -22c-14 25 -33 43 -56 55c-23 11 -55 16 -94 14c-28 -1 -51 -6 -69 -13s-32 -16 -43 -25c-12 -11 -21 -22 -27 -35l2 84l-236 5
l-18 -506l255 -2c0 23 0 44 1 65c1 17 1 35 1 53c0 17 0 31 1 41c1 24 3 47 4 68s3 37 6 50c5 17 11 29 20 36c8 7 19 10 32 10c14 -1 25 -5 34 -12c8 -8 14 -24 19 -47c1 -5 1 -12 2 -21v-30v-33c-1 -11 -1 -22 -1 -32v-39c0 -17 0 -34 -1 -50c-1 -19 -1 -39 -1 -60l227 -7
c-2 49 -4 93 -6 132c-1 17 -1 33 -2 50c-1 16 -1 31 -2 44s-1 25 -1 34c-1 9 -1 14 -1 16c0 22 4 37 12 44c7 7 16 12 25 13c15 3 27 -1 37 -10s17 -23 20 -41c1 -5 2 -13 4 -23c1 -11 3 -22 4 -34c1 -13 3 -25 4 -38s2 -24 3 -34c1 -13 3 -27 4 -43c1 -17 2 -32 3 -47
c1 -17 3 -35 4 -52l265 -10c-8 45 -16 89 -23 130c-3 17 -7 35 -10 54c-3 18 -7 36 -10 53c-4 17 -7 33 -10 48s-6 27 -8 37z" />
    <glyph glyph-name="n" unicode="n" horiz-adv-x="710" 
d="M2 -9l259 -1v121v47c0 15 0 30 1 43c0 13 0 25 1 35s1 17 2 22c3 18 10 32 19 42c9 9 20 14 35 13c15 0 28 -5 37 -14s15 -25 20 -46c1 -7 3 -15 5 -26c1 -11 3 -24 4 -37c1 -14 3 -29 5 -44c1 -16 3 -31 4 -46c3 -35 6 -73 9 -113l248 -6c-11 51 -22 100 -33 147
c-5 19 -9 39 -14 60c-5 20 -10 39 -15 58s-10 36 -14 52c-5 15 -9 28 -13 38s-9 23 -14 38c-6 15 -15 30 -26 45c-12 15 -28 27 -47 37c-20 10 -46 15 -77 15c-32 -1 -57 -4 -76 -11s-33 -14 -44 -23c-12 -10 -21 -21 -27 -33l-2 72l-233 3z" />
    <glyph glyph-name="o" unicode="o" horiz-adv-x="626" 
d="M574 268c-1 39 -8 73 -20 101c-12 27 -27 50 -45 68c-19 18 -39 32 -62 42c-23 9 -45 16 -67 20s-43 6 -62 6c-20 -1 -36 -2 -49 -4c-25 -4 -54 -12 -85 -24c-32 -13 -62 -30 -90 -53s-51 -51 -69 -85c-19 -34 -27 -74 -25 -121s12 -87 29 -118c17 -32 38 -58 65 -77
c26 -19 56 -33 89 -40c33 -8 68 -11 103 -10s70 6 105 14s67 23 95 44c27 21 49 50 66 88s24 88 22 149zM291 151c-21 0 -38 3 -51 10c-14 6 -25 14 -33 23s-13 20 -16 31s-5 23 -5 34c-1 24 8 45 25 64s43 29 80 31c13 1 26 0 39 -2s24 -6 35 -12c11 -7 20 -16 27 -27
s11 -26 12 -44c2 -32 -8 -58 -29 -78c-21 -21 -49 -31 -84 -30z" />
    <glyph glyph-name="p" unicode="p" horiz-adv-x="686" 
d="M373 507c-25 0 -51 -3 -76 -9c-26 -6 -50 -16 -71 -29l1 37l-226 4l13 -711h201l9 222c21 -13 43 -24 66 -31s45 -12 67 -13c87 -7 153 13 197 60s67 120 70 219c1 50 -5 91 -18 124c-13 32 -31 58 -54 77s-50 32 -81 39s-63 11 -98 11zM327 164c-17 0 -30 3 -41 8
s-19 11 -25 18c-7 7 -11 16 -13 25c-3 9 -4 17 -4 26c0 19 7 36 20 51s34 23 63 24c10 1 20 0 31 -1c10 -2 19 -5 28 -10c8 -5 15 -12 21 -21c5 -9 9 -21 10 -35c1 -25 -7 -46 -24 -62s-39 -24 -66 -23z" />
    <glyph glyph-name="q" unicode="q" horiz-adv-x="703" 
d="M1 256c2 -99 25 -172 69 -219s110 -67 198 -60c21 1 44 6 67 13s44 18 65 31l9 -222h201l14 711l-226 -4v-37c-21 13 -45 23 -70 29c-26 6 -51 9 -76 9c-35 0 -67 -4 -98 -11s-58 -20 -81 -39s-41 -45 -54 -77c-13 -33 -19 -74 -18 -124zM208 249c1 14 4 26 10 35
c5 9 12 16 21 21c8 5 17 8 28 10c10 1 20 2 30 1c29 -1 51 -9 64 -24s20 -32 19 -51c0 -9 -1 -17 -3 -26c-3 -9 -7 -18 -13 -25c-7 -7 -15 -13 -26 -18s-24 -8 -41 -8c-27 -1 -49 7 -66 23s-24 37 -23 62z" />
    <glyph glyph-name="r" unicode="r" horiz-adv-x="569" 
d="M1 -21h268l-4 285c3 7 7 13 12 18s11 9 19 12c7 3 17 5 30 5c15 -1 27 -6 36 -14s16 -17 21 -27c6 -12 10 -25 13 -39l186 55c-5 29 -13 55 -23 79c-10 23 -23 43 -38 60c-15 16 -33 28 -53 37c-21 8 -44 11 -70 10c-27 -1 -49 -6 -67 -13s-33 -15 -44 -22
c-13 -9 -24 -19 -32 -30v71h-230z" />
    <glyph glyph-name="s" unicode="s" horiz-adv-x="508" 
d="M69 164l-68 -141c13 -8 29 -15 48 -22c17 -5 38 -10 63 -15s55 -8 91 -9c37 -1 68 1 94 5c26 3 48 9 66 18s33 20 45 34c12 13 23 30 32 49s13 40 14 64c0 24 -4 47 -13 68s-24 40 -43 55c-20 15 -46 24 -77 26c-34 2 -57 6 -70 12c-13 5 -18 14 -17 26c1 7 7 12 17 17
s22 7 35 6c11 -1 22 -2 32 -4c9 -3 18 -5 25 -8c8 -3 16 -6 23 -10l49 141c-24 7 -49 13 -76 18c-23 4 -48 7 -76 9c-28 1 -56 0 -84 -4c-28 -5 -52 -12 -71 -23c-20 -11 -36 -24 -48 -39c-13 -15 -22 -30 -28 -47s-9 -34 -10 -51c-1 -16 1 -31 5 -45c3 -15 10 -28 19 -40
c9 -13 22 -24 39 -34c17 -11 38 -20 64 -28c14 -5 27 -8 39 -11s23 -5 32 -8s16 -7 21 -11s7 -10 7 -18c-1 -11 -8 -19 -23 -22c-15 -4 -32 -4 -52 0c-16 3 -30 7 -43 12s-24 9 -33 14c-11 5 -20 11 -28 16z" />
    <glyph glyph-name="t" unicode="t" horiz-adv-x="533" 
d="M468 80l-84 94c-5 -5 -10 -11 -15 -17c-5 -5 -10 -11 -15 -16c-6 -5 -13 -10 -20 -14c-19 -11 -36 -12 -53 -1c-5 3 -8 6 -10 11s-3 10 -4 15s-2 11 -2 17v16c0 8 0 23 1 44c0 21 1 45 2 73l186 -5l-1 137l-182 -1c1 22 1 43 2 63c0 20 0 38 1 53c1 17 1 34 1 50l-185 2
c-1 -16 -1 -33 -2 -52c-1 -16 -1 -34 -1 -55c-1 -21 -1 -44 -2 -68l-81 -1l-3 -116l81 -2c-1 -29 -2 -55 -2 -78c-1 -23 -1 -38 -1 -47c0 -21 1 -42 3 -63c1 -21 6 -40 14 -58c7 -18 19 -34 36 -47c16 -14 39 -24 68 -31c33 -7 63 -10 90 -7c27 2 52 8 74 17s42 22 59 37
s32 32 45 50z" />
    <glyph glyph-name="u" unicode="u" horiz-adv-x="707" 
d="M626 -19l-37 494l-214 3c-1 -27 -1 -53 -1 -76c-1 -20 -1 -40 -1 -60v-45v-71c-1 -21 -3 -38 -6 -51c-5 -21 -13 -35 -24 -41s-22 -9 -35 -9c-15 0 -28 4 -40 12c-13 7 -21 23 -25 46c-1 5 -2 13 -2 23c-1 10 -1 21 -1 33v37c0 12 0 23 1 33c0 9 0 23 1 40
c0 17 0 33 1 50c1 19 1 40 2 61l-228 8c-7 -51 -11 -100 -14 -147c-1 -20 -2 -41 -2 -62c-1 -21 0 -42 1 -62s2 -39 5 -57s7 -34 12 -47c11 -27 22 -49 35 -64c12 -16 26 -28 43 -36s36 -13 58 -16c21 -3 46 -4 75 -5c28 -1 52 1 72 6c19 5 36 11 49 18c15 7 27 16 37 27
l3 -36z" />
    <glyph glyph-name="v" unicode="v" horiz-adv-x="673" 
d="M1 493l154 -513l281 3l177 510l-229 -10l-85 -308l-64 313z" />
    <glyph glyph-name="w" unicode="w" horiz-adv-x="933" 
d="M1 474l83 -494l253 -8l87 254l54 -242l215 1l176 487l-234 -6l-63 -216l-74 199l-151 -5l-85 -201l-22 225z" />
    <glyph glyph-name="x" unicode="x" horiz-adv-x="682" 
d="M32 490l155 -257l-186 -253h233l86 185l88 -182l227 6l-175 259l158 241l-218 3l-78 -166l-69 161z" />
    <glyph glyph-name="y" unicode="y" horiz-adv-x="674" 
d="M97 -232l275 -8l267 754l-251 -5l-77 -328l-65 308l-245 -1l222 -513z" />
    <glyph glyph-name="z" unicode="z" horiz-adv-x="576" 
d="M545 498h-500v-144h206l-250 -376h512l-10 154l-201 -3z" />
    <glyph glyph-name="braceleft" unicode="{" horiz-adv-x="288" 
d="M218 613v111c-46 3 -85 0 -116 -8c-32 -8 -57 -19 -76 -33s-33 -30 -41 -48c-9 -18 -13 -36 -13 -53c-1 -17 1 -33 5 -46c3 -13 8 -26 13 -37s11 -22 17 -32s12 -21 17 -32s6 -20 1 -26s-12 -11 -20 -14c-9 -3 -21 -6 -35 -7v-92c14 -1 26 -3 35 -6c8 -3 15 -8 20 -14
c5 -7 4 -16 -1 -28c-5 -11 -11 -21 -17 -31s-12 -20 -17 -31s-10 -24 -13 -37c-4 -13 -6 -28 -5 -45c0 -18 4 -36 13 -54c8 -18 22 -34 41 -48s44 -25 76 -32c31 -8 70 -10 116 -6v110c-19 -6 -37 -9 -54 -8c-14 1 -28 4 -41 11c-14 6 -24 18 -30 36c-4 13 -5 25 -2 36
c2 11 6 23 11 35c5 11 10 23 15 35c5 11 9 24 11 37s1 26 -2 41c-3 14 -11 30 -24 47c13 17 21 32 24 47c3 14 4 27 2 40s-6 25 -11 37c-5 11 -10 23 -15 34s-9 23 -11 34c-3 11 -2 23 2 35c6 19 16 31 30 38c13 7 27 10 41 11c17 1 35 -2 54 -7z" />
    <glyph glyph-name="bar" unicode="|" horiz-adv-x="192" 
d="M-10 -33h110l9 751h-105z" />
    <glyph glyph-name="braceright" unicode="}" horiz-adv-x="298" 
d="M-20 71v-111c46 -3 85 0 117 8c31 8 57 19 76 33s32 30 41 48c8 18 12 36 12 53c1 17 -1 33 -4 46c-4 13 -9 26 -14 37s-11 22 -17 32c-7 10 -12 21 -17 32s-5 20 0 26s11 11 19 14c9 3 21 6 35 7v92c-14 1 -26 3 -35 6c-8 3 -14 8 -19 15c-5 6 -5 15 0 27
c5 11 10 21 17 31c6 10 12 21 17 32s10 23 14 36c3 13 5 28 4 45c0 18 -4 36 -12 54c-9 18 -22 34 -41 48s-45 25 -76 33c-32 7 -71 9 -117 5v-110c19 5 36 8 53 7c14 -1 28 -4 42 -10s24 -18 30 -36c4 -13 5 -25 3 -36c-3 -11 -6 -23 -11 -34c-5 -12 -11 -24 -16 -35
c-5 -12 -9 -24 -11 -37s-1 -27 2 -42s11 -30 24 -47c-13 -17 -21 -32 -24 -46c-3 -15 -4 -28 -2 -41s6 -25 11 -36c5 -12 11 -24 16 -35s8 -23 11 -34c2 -11 1 -23 -3 -35c-6 -19 -16 -31 -30 -38s-28 -10 -42 -11c-17 -1 -34 2 -53 7z" />
    <glyph glyph-name="asciitilde" unicode="~" horiz-adv-x="880" 
d="M-16 391l146 -157c12 24 26 46 41 65c13 17 29 32 48 47c18 15 38 23 60 25c17 1 33 -1 46 -8s25 -15 36 -26s23 -22 34 -35s23 -25 38 -36c14 -11 30 -21 49 -29s41 -12 67 -12c13 0 27 2 42 7c14 5 28 11 43 19c14 8 28 17 42 28c14 10 27 20 40 31c29 25 58 54 86 87
l-135 124c-12 -20 -25 -38 -38 -54c-11 -13 -25 -26 -40 -37c-16 -12 -33 -19 -50 -20s-32 3 -44 12s-23 20 -33 34c-11 14 -21 29 -32 45s-23 31 -37 45c-15 13 -32 24 -52 33s-45 12 -74 10c-19 -1 -38 -5 -56 -11c-19 -6 -36 -14 -53 -23c-17 -10 -33 -21 -48 -32
c-15 -12 -29 -24 -42 -36c-31 -29 -59 -61 -84 -96z" />
    <glyph glyph-name="PaddingCharacter" horiz-adv-x="40" 
 />
    <glyph glyph-name="exclamdown" unicode="&#xa1;" horiz-adv-x="250" 
d="M11 551c24 -21 51 -28 81 -19c23 5 38 14 47 27c8 12 14 24 17 35c4 13 6 27 5 42s-6 28 -15 41c-11 15 -23 24 -36 29s-28 7 -44 6c-15 -1 -28 -4 -38 -10c-11 -7 -20 -14 -27 -22c-7 -9 -12 -20 -15 -31c-3 -12 -4 -24 -3 -35c1 -12 3 -23 8 -34s11 -21 20 -29z
M147 474l-133 -2l-13 -501l163 -2z" />
    <glyph glyph-name="cent" unicode="&#xa2;" horiz-adv-x="669" 
d="M600 118l-123 122c-8 -9 -17 -18 -28 -27c-9 -7 -20 -15 -33 -24s-28 -16 -44 -23l-27 205c20 -1 37 -3 51 -6c14 -4 26 -8 35 -13c11 -5 19 -11 26 -18l13 179c-11 5 -23 10 -38 14c-13 3 -28 6 -46 9c-19 2 -40 2 -63 1l-26 196l-76 -14l19 -195c-6 -1 -12 -3 -18 -5
l-18 -6c-42 -13 -78 -32 -109 -57s-56 -53 -73 -85c-17 -33 -28 -68 -31 -105c-3 -38 2 -77 15 -116c11 -35 25 -66 42 -91c17 -26 37 -47 60 -62c23 -16 49 -26 80 -31c30 -5 65 -5 104 1l16 -168h113l-26 195c42 14 76 28 103 43s48 28 63 40c17 14 30 28 39 41zM193 228
c-3 11 -5 23 -4 36s4 25 9 36s12 22 21 32s21 18 36 25l20 -205c-22 3 -40 12 -53 25s-23 30 -29 51z" />
    <glyph glyph-name="sterling" unicode="&#xa3;" horiz-adv-x="559" 
d="M76 -21h405l-1 176l-211 -8c-1 13 -1 27 -2 42c-1 13 -1 27 -2 44c-1 16 -1 33 -2 52h139l-1 122l-143 1c-1 13 -1 24 -1 33c-1 9 -1 16 -1 21c-1 16 2 31 7 45c5 13 12 23 23 30c10 6 23 7 38 4c15 -4 33 -15 54 -34l81 134c-24 19 -50 35 -78 47c-24 10 -52 17 -85 22
s-68 1 -106 -11c-33 -11 -57 -27 -74 -48s-28 -45 -35 -72s-11 -56 -11 -85s0 -57 1 -84l-100 2v-126l101 -1c1 -33 1 -68 2 -103c0 -36 0 -69 1 -99c1 -35 1 -70 1 -104z" />
    <glyph glyph-name="yen" unicode="&#xa5;" horiz-adv-x="735" 
d="M559 250l-1 127l-84 1l173 324l-251 1l-63 -240l-105 215l-260 -13l219 -283l-76 1v-130l122 -3v-41l-122 1v-130l119 -1l-2 -111l236 11l-6 100h101l-1 127l-105 1l-4 43h110z" />
    <glyph glyph-name="section" unicode="&#xa7;" horiz-adv-x="422" 
d="M309 235c-1 1 -2 3 -3 4l-3 3c4 5 8 10 12 16c4 5 8 11 11 17c6 11 11 25 15 42s6 34 6 53s-3 37 -8 56c-6 18 -16 34 -29 47c-13 14 -27 25 -42 34s-29 16 -42 21c-14 5 -27 8 -38 11c-12 2 -22 4 -30 5c-17 3 -29 9 -38 16s-11 17 -6 31c4 11 12 17 23 17s24 -3 37 -8
c12 -6 24 -13 36 -22c7 -5 13 -9 19 -14l52 91c-23 16 -47 29 -71 38c-21 8 -43 13 -68 15s-50 -3 -73 -16c-24 -13 -42 -28 -55 -45s-21 -35 -26 -54s-5 -37 -2 -54c3 -18 8 -34 15 -47c5 -9 13 -18 23 -25c9 -7 20 -14 33 -20c-21 -13 -37 -28 -48 -45s-19 -35 -22 -52
c-4 -18 -5 -35 -2 -52s8 -32 15 -45c8 -14 21 -26 38 -35c17 -10 36 -18 55 -25s37 -12 54 -15c17 -4 30 -7 39 -9c17 -3 28 -10 32 -19c3 -9 3 -18 -1 -27c-9 -19 -40 -22 -95 -7c-13 3 -26 8 -37 13s-21 11 -29 16c-9 6 -18 12 -26 17l-16 -159c9 -5 20 -9 32 -14
c11 -4 24 -8 40 -13c15 -5 33 -9 54 -12c25 -4 47 -5 67 -3c19 2 37 7 52 14s28 16 39 27s20 22 27 35c7 12 12 27 17 44c4 17 6 34 6 53c-1 18 -4 36 -10 54s-16 34 -29 47zM114 353c5 17 13 30 24 38l30 21c3 -1 7 -2 10 -2s6 -1 8 -2c17 -4 28 -11 33 -22
c4 -11 4 -22 1 -31c-4 -9 -10 -18 -18 -27c-9 -9 -18 -17 -27 -25c-3 0 -6 0 -9 1s-6 1 -9 2c-16 3 -28 8 -37 15s-11 18 -6 32z" />
    <glyph glyph-name="copyright" unicode="&#xa9;" horiz-adv-x="786" 
d="M590 623c-48 42 -99 70 -152 84c-54 13 -112 11 -175 -6c-45 -12 -83 -28 -113 -47c-31 -19 -56 -40 -75 -63c-20 -23 -35 -46 -46 -70c-11 -25 -20 -48 -26 -70c-8 -27 -14 -55 -17 -84c-4 -29 -5 -57 -2 -86s9 -58 18 -86c9 -29 23 -56 42 -81c21 -29 44 -53 69 -72
c24 -19 50 -34 77 -45s55 -18 85 -21c29 -4 60 -5 91 -4s59 5 86 12c26 7 50 17 72 29c22 11 42 25 59 40s33 31 46 48c29 37 50 78 63 125s17 94 14 142s-15 94 -34 139s-47 83 -82 116zM561 147c-19 -25 -46 -47 -79 -66s-74 -30 -122 -32c-24 -1 -47 0 -69 3
c-23 3 -44 8 -64 17c-21 8 -40 19 -59 34c-19 14 -36 32 -52 55c-14 19 -25 40 -32 61s-12 43 -14 65s-2 44 1 66s7 43 13 64c5 17 11 34 20 53c8 19 20 37 35 55c15 17 34 33 57 48c23 14 52 26 86 35c94 26 177 6 249 -60c27 -25 48 -54 63 -88s23 -69 26 -106
s-1 -73 -11 -108c-10 -36 -26 -68 -48 -96zM149 329c1 -18 3 -37 7 -58c3 -21 11 -41 22 -60s27 -37 48 -52s49 -27 84 -35c29 -7 55 -10 78 -9c22 1 41 4 57 7c18 4 34 10 49 18l-24 131c-33 -13 -62 -20 -88 -22c-11 -1 -22 0 -33 2c-11 1 -20 5 -28 11
c-9 5 -16 13 -21 24c-5 10 -8 23 -9 39c-1 21 3 39 10 52s16 24 27 31s23 11 37 12s27 1 40 -1c13 -3 24 -6 34 -11s17 -11 21 -16l19 135c-17 7 -36 13 -56 17c-17 3 -37 5 -59 5s-45 -4 -69 -11c-24 -8 -45 -19 -64 -34s-34 -32 -46 -51c-13 -19 -22 -40 -28 -61
s-9 -42 -8 -63z" />
    <glyph glyph-name="registered" unicode="&#xae;" horiz-adv-x="574" 
d="M238 382l53 -97l88 26l-72 96c8 5 15 11 20 19c13 16 19 36 19 61c0 24 -7 45 -21 63c-7 9 -15 16 -24 21s-19 8 -28 11c-9 2 -18 3 -27 4h-22h-102l2 -290h87l-1 82c5 1 9 1 14 2c5 0 9 1 14 2zM207 440l-3 83c11 1 21 1 30 -1c7 -2 14 -6 21 -11s10 -14 10 -25
c0 -13 -3 -22 -9 -28c-6 -7 -13 -11 -20 -14c-9 -3 -18 -4 -29 -4zM412 646c-34 30 -70 50 -108 60c-39 9 -81 8 -127 -4c-32 -9 -59 -20 -81 -34s-40 -29 -54 -45c-14 -17 -25 -34 -32 -51c-8 -17 -14 -34 -19 -50c-5 -19 -9 -39 -12 -60s-3 -42 -1 -63s6 -41 13 -61
s17 -39 30 -57c15 -21 32 -39 50 -52c17 -14 36 -25 55 -32c19 -8 40 -13 61 -16s42 -4 65 -3c44 1 82 11 113 30s56 40 75 63c21 27 36 57 45 91c9 33 13 67 11 102c-3 34 -11 67 -24 99c-14 32 -34 60 -60 83zM392 305c-15 -18 -34 -34 -57 -48c-24 -14 -53 -22 -86 -23
c-35 -1 -68 3 -97 14c-30 11 -57 32 -81 64c-20 28 -31 58 -32 91c-2 32 1 63 10 93c3 12 8 25 15 38c6 13 14 26 25 39c11 12 24 23 41 34s37 19 62 26c67 17 126 3 178 -43c19 -18 34 -39 45 -63c11 -25 17 -50 19 -76s0 -52 -7 -77c-7 -26 -19 -49 -35 -69z" />
    <glyph glyph-name="degree" unicode="&#xb0;" horiz-adv-x="376" 
d="M248 670c-43 39 -92 51 -147 36c-21 -5 -38 -12 -51 -21c-14 -9 -25 -19 -34 -29c-9 -11 -16 -21 -21 -32s-9 -22 -12 -32c-7 -24 -10 -50 -9 -77s10 -52 27 -75c19 -27 41 -45 66 -53c25 -9 51 -12 80 -11c28 1 52 8 72 19s36 24 47 39c13 17 23 36 29 57
c5 21 7 43 6 64s-6 42 -15 63c-9 20 -22 37 -38 52zM187 511c-4 -5 -10 -10 -17 -15c-8 -5 -17 -7 -28 -7c-11 -1 -21 1 -30 4s-18 10 -25 20c-7 9 -10 19 -10 29c-1 10 0 20 3 29c2 8 6 16 12 25c6 8 17 14 32 18c21 5 40 1 57 -13c12 -11 19 -26 20 -44s-4 -33 -14 -46z
" />
    <glyph glyph-name="plusminus" unicode="&#xb1;" horiz-adv-x="487" 
d="M36 -14l308 5l16 131h-331zM140 194l115 3l-2 146l149 5l-7 138l-143 -13l-2 154h-134l9 -165l-143 -12l11 -115l139 4z" />
    <glyph glyph-name="mu" unicode="&#xb5;" horiz-adv-x="707" 
d="M613 -19l-34 495l-217 4v-183v-70c-1 -21 -3 -39 -6 -52c-6 -21 -14 -35 -24 -41s-22 -9 -35 -9c-15 0 -28 4 -41 12c-13 7 -21 23 -26 47c-1 5 -1 12 -1 22c-1 10 -1 21 -1 33c-1 12 -1 24 0 37v33v42c0 17 0 35 1 52c1 20 1 41 2 64l-230 5l14 -713h201l4 214
c28 -1 52 2 72 7c19 5 35 11 48 18c15 7 27 16 37 27l3 -39z" />
    <glyph glyph-name="questiondown" unicode="&#xbf;" horiz-adv-x="495" 
d="M239 548c23 6 38 15 47 27s15 24 18 35c3 13 5 27 4 42s-6 28 -15 41c-11 15 -23 24 -36 29s-28 7 -43 6s-28 -4 -39 -10s-19 -13 -26 -22s-13 -20 -16 -31s-4 -23 -3 -35s3 -23 8 -34s12 -21 21 -29c23 -21 50 -28 80 -19zM198 -31c41 0 76 7 105 20c28 13 51 30 69 53
c18 22 31 48 40 78c8 30 13 62 15 95l-157 3c1 -25 -2 -48 -7 -68c-2 -9 -5 -17 -8 -25c-4 -8 -9 -15 -14 -21c-6 -7 -13 -12 -20 -15c-7 -4 -16 -6 -26 -6c-18 1 -32 5 -41 13c-10 8 -17 18 -21 29c-5 11 -7 22 -8 35s-1 24 -2 33c-1 15 1 29 4 44c3 14 10 27 22 38
s30 20 53 27s55 10 95 10l-1 180l-139 -4v-104c-36 -3 -68 -11 -96 -25c-12 -6 -24 -13 -35 -22s-21 -20 -30 -33s-16 -29 -21 -46c-5 -18 -8 -38 -8 -61c1 -38 5 -71 14 -100s22 -52 41 -71c18 -19 42 -34 71 -43s64 -14 105 -14z" />
    <glyph glyph-name="Agrave" unicode="&#xc0;" horiz-adv-x="776" 
d="M448 -20l-30 138l-169 -11l-26 -135l-241 -7l195 726l279 21l242 -728zM280 267l104 4l-56 247zM371 810l-159 130l-62 -85l178 -104z" />
    <glyph glyph-name="Aacute" unicode="&#xc1;" horiz-adv-x="776" 
d="M448 -20l250 4l-242 728l-279 -21l-195 -726l241 7l26 135l169 11zM280 267l48 251l56 -247zM267 810l43 -59l178 104l-63 85z" />
    <glyph glyph-name="Acircumflex" unicode="&#xc2;" horiz-adv-x="776" 
d="M448 -20l250 4l-242 728l-279 -21l-195 -726l241 7l26 135l169 11zM280 267l48 251l56 -247zM177 787l42 -32l94 84l86 -84l51 32l-131 128z" />
    <glyph glyph-name="Atilde" unicode="&#xc3;" horiz-adv-x="776" 
d="M448 -20l-30 138l-169 -11l-26 -135l-241 -7l195 726l279 21l242 -728zM280 267l104 4l-56 247zM166 831l55 -57c3 5 5 9 8 14c2 4 5 8 8 11l9 9l9 9c7 5 15 8 23 8c9 0 17 -3 23 -9l18 -18c6 -7 13 -13 22 -19c9 -5 20 -8 33 -8c9 0 17 2 26 7s19 11 28 18s17 14 24 21
c3 4 7 8 10 11l7 7l-52 45c-2 -4 -4 -8 -7 -11s-5 -7 -8 -10c-5 -6 -10 -11 -15 -14c-6 -4 -12 -6 -18 -6c-9 0 -16 3 -21 10c-3 3 -5 7 -7 11c-3 3 -6 7 -9 12c-5 7 -12 15 -21 22s-21 11 -36 11c-11 0 -23 -3 -36 -10s-23 -14 -32 -21c-11 -9 -20 -17 -26 -24
c-3 -4 -6 -8 -9 -11s-5 -6 -6 -8z" />
    <glyph glyph-name="Adieresis" unicode="&#xc4;" horiz-adv-x="776" 
d="M418 118l30 -138l250 4l-242 728l-279 -21l-195 -726l241 7l26 135zM384 271l-104 -4l48 251zM262 875c-16 14 -33 18 -52 12c-15 -3 -25 -9 -30 -17c-6 -8 -10 -16 -12 -23c-3 -9 -4 -18 -3 -27s4 -18 10 -27c7 -9 14 -15 23 -18s18 -5 28 -4c10 0 19 2 26 6s12 9 16 14
c9 12 14 26 13 43s-8 30 -19 41zM440 875c-16 14 -33 18 -52 12c-15 -3 -25 -9 -30 -17c-6 -8 -10 -16 -12 -23c-3 -9 -4 -18 -3 -27s4 -18 10 -27c7 -9 14 -15 23 -18s18 -5 28 -4c10 0 19 2 26 6s12 9 16 14c9 12 14 26 13 43s-8 30 -19 41z" />
    <glyph glyph-name="Aring" unicode="&#xc5;" horiz-adv-x="776" 
d="M418 118l30 -138l250 4l-242 728l-279 -21l-195 -726l241 7l26 135zM384 271l-104 -4l48 251zM376 924c-23 21 -50 28 -80 20c-22 -6 -37 -15 -46 -27s-15 -24 -18 -35c-4 -13 -6 -27 -5 -42s6 -28 15 -41c11 -15 23 -24 36 -29s28 -7 43 -6s28 4 39 11c11 6 19 13 26 21
c7 9 12 19 15 31c3 11 5 23 4 35c-1 11 -4 23 -9 34s-11 20 -20 28zM343 838c-3 -3 -6 -6 -10 -8c-4 -3 -9 -4 -15 -4c-13 -1 -23 3 -30 13c-5 9 -6 20 -3 31c1 5 4 9 7 14c3 4 8 7 17 10c11 3 21 1 30 -7c7 -7 11 -15 12 -24c0 -9 -3 -18 -8 -25z" />
    <glyph glyph-name="AE" unicode="&#xc6;" horiz-adv-x="897" 
d="M582 195l-1 117l161 1l1 134l-169 2l-1 105l220 -3l-6 149l-602 -13l-201 -712l228 2l38 139l114 1l1 -138l454 2l1 209zM288 254l73 265l2 -267z" />
    <glyph glyph-name="Ccedilla" unicode="&#xc7;" horiz-adv-x="645" 
d="M345 -38c0 4 0 7 1 8c38 -3 72 -3 102 1c29 3 54 8 75 14c24 7 45 16 63 25l-41 224c-56 -23 -106 -35 -150 -38c-19 -1 -37 -1 -55 2s-34 9 -49 19c-15 9 -27 23 -36 40s-14 39 -15 67c-1 37 4 66 16 89s28 40 47 52c19 11 40 18 63 20s45 1 67 -2c21 -4 41 -10 58 -19
s29 -18 36 -27l32 231c-29 12 -61 21 -94 28c-29 5 -62 8 -99 8s-77 -6 -118 -19s-77 -32 -108 -57s-57 -54 -78 -86c-21 -33 -37 -67 -47 -103c-11 -37 -15 -73 -14 -108c1 -21 2 -42 5 -65s7 -45 14 -68s16 -45 29 -67c12 -22 28 -42 48 -61s44 -37 73 -52s63 -27 103 -36
c3 -1 7 -2 14 -3c-11 -9 -16 -20 -16 -34c1 -10 7 -18 18 -23s24 -10 37 -14c13 -5 24 -9 33 -14s13 -12 10 -21s-10 -16 -21 -20s-22 -6 -35 -7c-15 -1 -31 -1 -48 2l3 -72c33 -3 61 -1 85 6s44 16 59 28c15 11 26 25 33 40c6 15 8 29 6 42s-8 23 -19 29s-22 11 -34 14
c-13 3 -24 7 -34 10c-11 3 -17 9 -19 17z" />
    <glyph glyph-name="Egrave" unicode="&#xc8;" horiz-adv-x="529" 
d="M-5 -22l455 2l1 210l-239 5l-1 117l162 1l1 134l-169 2l-2 105l221 -2l-5 149l-429 -9zM261 810l-159 130l-62 -85l178 -104z" />
    <glyph glyph-name="Eacute" unicode="&#xc9;" horiz-adv-x="529" 
d="M-5 -22l455 2l1 210l-239 5l-1 117l162 1l1 134l-169 2l-2 105l221 -2l-5 149l-429 -9zM113 810l43 -59l178 104l-63 85z" />
    <glyph glyph-name="Ecircumflex" unicode="&#xca;" horiz-adv-x="529" 
d="M-5 -22l455 2l1 210l-239 5l-1 117l162 1l1 134l-169 2l-2 105l221 -2l-5 149l-429 -9zM73 787l42 -32l94 84l86 -84l51 32l-131 128z" />
    <glyph glyph-name="Edieresis" unicode="&#xcb;" horiz-adv-x="529" 
d="M-5 -22l455 2l1 210l-239 5l-1 117l162 1l1 134l-169 2l-2 105l221 -2l-5 149l-429 -9zM153 875c-16 14 -33 18 -52 12c-15 -3 -25 -9 -30 -17c-6 -8 -10 -16 -12 -23c-3 -9 -4 -18 -3 -27s4 -18 10 -27c7 -9 14 -15 23 -18s18 -5 28 -4c10 0 19 2 26 6s12 9 16 14
c9 12 14 26 13 43s-8 30 -19 41zM331 875c-16 14 -33 18 -52 12c-15 -3 -25 -9 -30 -17c-6 -8 -10 -16 -12 -23c-3 -9 -4 -18 -3 -27s4 -18 10 -27c7 -9 14 -15 23 -18s18 -5 28 -4c10 0 19 2 26 6s12 9 16 14c9 12 14 26 13 43s-8 30 -19 41z" />
    <glyph glyph-name="Igrave" unicode="&#xcc;" horiz-adv-x="335" 
d="M18 690l-22 -699l242 -7l-2 710zM185 810l-159 130l-62 -85l178 -104z" />
    <glyph glyph-name="Iacute" unicode="&#xcd;" horiz-adv-x="335" 
d="M18 690l-22 -699l242 -7l-2 710zM74 810l43 -59l178 104l-63 85z" />
    <glyph glyph-name="Icircumflex" unicode="&#xce;" horiz-adv-x="335" 
d="M18 690l-22 -699l242 -7l-2 710zM-9 787l42 -32l94 84l86 -84l51 32l-131 128z" />
    <glyph glyph-name="Idieresis" unicode="&#xcf;" horiz-adv-x="335" 
d="M18 690l-22 -699l242 -7l-2 710zM76 875c-16 14 -33 18 -52 12c-15 -3 -25 -9 -30 -17c-6 -8 -10 -16 -12 -23c-3 -9 -4 -18 -3 -27s4 -18 10 -27c7 -9 14 -15 23 -18s18 -5 28 -4c10 0 19 2 26 6s12 9 16 14c9 12 14 26 13 43s-8 30 -19 41zM254 875
c-16 14 -33 18 -52 12c-15 -3 -25 -9 -30 -17c-6 -8 -10 -16 -12 -23c-3 -9 -4 -18 -3 -27s4 -18 10 -27c7 -9 14 -15 23 -18s18 -5 28 -4c10 0 19 2 26 6s12 9 16 14c9 12 14 26 13 43s-8 30 -19 41z" />
    <glyph glyph-name="Eth" unicode="&#xd0;" horiz-adv-x="705" 
d="M574 586c-14 25 -32 46 -54 61s-46 27 -73 36s-55 14 -84 17s-58 4 -86 4c-21 0 -46 0 -77 -1s-62 -1 -92 -2c-35 -1 -70 -1 -107 -2v-282l-106 -1v-128l106 2l-1 -314c35 0 69 1 102 2c29 1 59 2 91 3c31 1 59 3 84 5c89 8 162 32 219 71s94 94 111 165
c18 73 23 140 16 202s-24 116 -49 162zM402 271c-7 -16 -17 -29 -28 -40c-12 -11 -26 -21 -41 -28s-32 -13 -51 -18s-40 -9 -61 -13l-2 122l109 2l-1 124l-110 -1l-2 120h18c5 0 11 0 18 1h18c12 0 24 -1 35 -2s22 -4 33 -9c10 -5 20 -12 29 -21s18 -22 26 -37
c17 -32 26 -65 29 -99c2 -35 -4 -68 -19 -101z" />
    <glyph glyph-name="Ntilde" unicode="&#xd1;" horiz-adv-x="720" 
d="M-8 -19l11 714l226 -7l195 -358l-9 356l211 9l-7 -712l-203 3l-206 376l-5 -373zM169 831l55 -57c3 5 5 9 8 14c2 4 5 8 8 11l9 9l9 9c7 5 15 8 23 8c9 0 17 -3 23 -9l18 -18c6 -7 13 -13 22 -19c9 -5 20 -8 33 -8c9 0 17 2 26 7s19 11 28 18s17 14 24 21c3 4 7 8 10 11
l7 7l-52 45c-2 -4 -4 -8 -7 -11s-5 -7 -8 -10c-5 -6 -10 -11 -15 -14c-6 -4 -12 -6 -18 -6c-9 0 -16 3 -21 10c-3 3 -5 7 -7 11c-3 3 -6 7 -9 12c-5 7 -12 15 -21 22s-21 11 -36 11c-11 0 -23 -3 -36 -10s-23 -14 -32 -21c-11 -9 -20 -17 -26 -24c-3 -4 -6 -8 -9 -11
s-5 -6 -6 -8z" />
    <glyph glyph-name="Ograve" unicode="&#xd2;" horiz-adv-x="782" 
d="M643 571c19 -25 33 -52 42 -80s15 -56 18 -85c2 -29 1 -58 -2 -87c-4 -29 -10 -56 -17 -83c-6 -22 -14 -45 -25 -70s-27 -48 -46 -71c-20 -23 -45 -44 -76 -63s-68 -35 -113 -47c-123 -33 -231 -6 -326 79c-36 32 -64 70 -83 115s-31 91 -34 139c-3 47 2 94 15 141
s33 89 62 126c13 17 28 33 46 48c17 15 37 28 59 40c22 11 46 21 73 28c26 7 54 12 85 13s62 0 91 -3c29 -4 58 -11 85 -22s52 -25 77 -44s48 -44 69 -74zM479 315c7 19 11 39 12 60s-2 42 -7 61s-14 37 -26 53c-12 15 -28 27 -47 35c-20 9 -40 12 -61 11s-40 -7 -58 -18
s-34 -27 -48 -47c-15 -21 -26 -46 -35 -75c-8 -26 -11 -50 -8 -71c3 -22 9 -41 18 -57c9 -17 20 -30 34 -40c14 -11 28 -18 43 -21c41 -9 77 -6 108 9s56 49 75 100zM410 810l-159 130l-62 -85l178 -104z" />
    <glyph glyph-name="Oacute" unicode="&#xd3;" horiz-adv-x="782" 
d="M643 571c-21 30 -44 55 -69 74s-50 33 -77 44s-56 18 -85 22c-29 3 -60 4 -91 3s-59 -6 -85 -13c-27 -7 -51 -17 -73 -28c-22 -12 -42 -25 -59 -40c-18 -15 -33 -31 -46 -48c-29 -37 -49 -79 -62 -126s-18 -94 -15 -141c3 -48 15 -94 34 -139s47 -83 83 -115
c95 -85 203 -112 326 -79c45 12 82 28 113 47s56 40 76 63c19 23 35 46 46 71s19 48 25 70c7 27 13 54 17 83c3 29 4 58 2 87c-3 29 -9 57 -18 85s-23 55 -42 80zM479 315c-19 -51 -44 -85 -75 -100s-67 -18 -108 -9c-15 3 -29 10 -43 21c-14 10 -25 23 -34 40
c-9 16 -15 35 -18 57c-3 21 0 45 8 71c9 29 20 54 35 75c14 20 30 36 48 47s37 17 58 18s41 -2 61 -11c19 -8 35 -20 47 -35c12 -16 21 -34 26 -53s8 -40 7 -61s-5 -41 -12 -60zM439 940l-158 -130l43 -59l178 104z" />
    <glyph glyph-name="Ocircumflex" unicode="&#xd4;" horiz-adv-x="782" 
d="M643 571c-21 30 -44 55 -69 74s-50 33 -77 44s-56 18 -85 22c-29 3 -60 4 -91 3s-59 -6 -85 -13c-27 -7 -51 -17 -73 -28c-22 -12 -42 -25 -59 -40c-18 -15 -33 -31 -46 -48c-29 -37 -49 -79 -62 -126s-18 -94 -15 -141c3 -48 15 -94 34 -139s47 -83 83 -115
c95 -85 203 -112 326 -79c45 12 82 28 113 47s56 40 76 63c19 23 35 46 46 71s19 48 25 70c7 27 13 54 17 83c3 29 4 58 2 87c-3 29 -9 57 -18 85s-23 55 -42 80zM479 315c-19 -51 -44 -85 -75 -100s-67 -18 -108 -9c-15 3 -29 10 -43 21c-14 10 -25 23 -34 40
c-9 16 -15 35 -18 57c-3 21 0 45 8 71c9 29 20 54 35 75c14 20 30 36 48 47s37 17 58 18s41 -2 61 -11c19 -8 35 -20 47 -35c12 -16 21 -34 26 -53s8 -40 7 -61s-5 -41 -12 -60zM352 915l-142 -128l42 -32l94 84l86 -84l51 32z" />
    <glyph glyph-name="Otilde" unicode="&#xd5;" horiz-adv-x="782" 
d="M643 571c19 -25 33 -52 42 -80s15 -56 18 -85c2 -29 1 -58 -2 -87c-4 -29 -10 -56 -17 -83c-6 -22 -14 -45 -25 -70s-27 -48 -46 -71c-20 -23 -45 -44 -76 -63s-68 -35 -113 -47c-123 -33 -231 -6 -326 79c-36 32 -64 70 -83 115s-31 91 -34 139c-3 47 2 94 15 141
s33 89 62 126c13 17 28 33 46 48c17 15 37 28 59 40c22 11 46 21 73 28c26 7 54 12 85 13s62 0 91 -3c29 -4 58 -11 85 -22s52 -25 77 -44s48 -44 69 -74zM479 315c7 19 11 39 12 60s-2 42 -7 61s-14 37 -26 53c-12 15 -28 27 -47 35c-20 9 -40 12 -61 11s-40 -7 -58 -18
s-34 -27 -48 -47c-15 -21 -26 -46 -35 -75c-8 -26 -11 -50 -8 -71c3 -22 9 -41 18 -57c9 -17 20 -30 34 -40c14 -11 28 -18 43 -21c41 -9 77 -6 108 9s56 49 75 100zM190 831l55 -57c3 5 5 9 8 14c2 4 5 8 8 11l9 9l9 9c7 5 15 8 23 8c9 0 17 -3 23 -9l18 -18
c6 -7 13 -13 22 -19c9 -5 20 -8 33 -8c9 0 17 2 26 7s19 11 28 18s17 14 24 21c3 4 7 8 10 11l7 7l-52 45c-2 -4 -4 -8 -7 -11s-5 -7 -8 -10c-5 -6 -10 -11 -15 -14c-6 -4 -12 -6 -18 -6c-9 0 -16 3 -21 10c-3 3 -5 7 -7 11c-3 3 -6 7 -9 12c-5 7 -12 15 -21 22
s-21 11 -36 11c-11 0 -23 -3 -36 -10s-23 -14 -32 -21c-11 -9 -20 -17 -26 -24c-3 -4 -6 -8 -9 -11s-5 -6 -6 -8z" />
    <glyph glyph-name="Odieresis" unicode="&#xd6;" horiz-adv-x="782" 
d="M663 571c-21 30 -44 55 -69 74s-50 33 -77 44s-56 18 -85 22c-29 3 -60 4 -91 3s-59 -6 -85 -13c-27 -7 -51 -17 -73 -28c-22 -12 -42 -25 -59 -40c-18 -15 -33 -31 -46 -48c-29 -37 -49 -79 -62 -126s-18 -94 -15 -141c3 -48 15 -94 34 -139s47 -83 83 -115
c95 -85 203 -112 326 -79c45 12 82 28 113 47s56 40 76 63c19 23 35 46 46 71s19 48 25 70c7 27 13 54 17 83c3 29 4 58 2 87c-3 29 -9 57 -18 85s-23 55 -42 80zM499 315c-19 -51 -44 -85 -75 -100s-67 -18 -108 -9c-15 3 -29 10 -43 21c-14 10 -25 23 -34 40
c-9 16 -15 35 -18 57c-3 21 0 45 8 71c9 29 20 54 35 75c14 20 30 36 48 47s37 17 58 18s41 -2 61 -11c19 -8 35 -20 47 -35c12 -16 21 -34 26 -53s8 -40 7 -61s-5 -41 -12 -60zM313 875c-16 14 -33 18 -52 12c-15 -3 -25 -9 -30 -17c-6 -8 -10 -16 -12 -23
c-3 -9 -4 -18 -3 -27s4 -18 10 -27c7 -9 14 -15 23 -18s18 -5 28 -4c10 0 19 2 26 6s12 9 16 14c9 12 14 26 13 43s-8 30 -19 41zM491 875c-16 14 -33 18 -52 12c-15 -3 -25 -9 -30 -17c-6 -8 -10 -16 -12 -23c-3 -9 -4 -18 -3 -27s4 -18 10 -27c7 -9 14 -15 23 -18
s18 -5 28 -4c10 0 19 2 26 6s12 9 16 14c9 12 14 26 13 43s-8 30 -19 41z" />
    <glyph glyph-name="multiply" unicode="&#xd7;" horiz-adv-x="436" 
d="M362 423l-92 103l-108 -102l-102 104l-84 -78l98 -109l-102 -96l74 -89l109 92l111 -122l94 95l-107 110z" />
    <glyph glyph-name="Oslash" unicode="&#xd8;" horiz-adv-x="782" 
d="M641 575c-8 10 -16 20 -24 29s-16 18 -25 25l68 96l-70 41l-63 -89c-32 17 -65 28 -99 34c-35 5 -71 7 -108 6c-31 -1 -60 -6 -86 -13c-27 -7 -51 -17 -73 -28c-22 -12 -42 -25 -59 -40s-32 -31 -45 -48c-29 -37 -49 -78 -62 -124c-13 -47 -18 -94 -15 -141
s13 -93 32 -137c19 -45 46 -83 81 -116l-60 -85l73 -37l52 73c79 -48 167 -59 264 -33c45 12 82 28 113 47c30 19 55 41 75 64c19 23 35 46 46 71c11 24 20 47 26 69c7 27 13 54 17 83c3 29 4 58 2 87c-3 29 -9 57 -18 86c-9 28 -23 55 -42 80zM207 398c9 29 20 54 35 75
c14 20 30 36 48 47s37 17 58 19c21 1 41 -2 61 -11c1 -1 3 -1 4 -2s3 -1 4 -2l-191 -268c-13 17 -21 37 -26 61c-5 23 -2 50 7 81zM476 319c-19 -51 -43 -85 -74 -100c-31 -16 -67 -19 -107 -10c-1 0 -1 0 -2 1l180 253c10 -22 15 -46 16 -72c0 -26 -4 -50 -13 -72z" />
    <glyph glyph-name="Ugrave" unicode="&#xd9;" horiz-adv-x="713" 
d="M17 203c7 -46 20 -84 40 -114c19 -31 43 -55 71 -72s59 -30 92 -37s67 -11 101 -11c64 0 116 9 155 26s70 39 92 64c21 25 36 53 44 82c7 29 11 56 12 79v45c0 19 0 41 -1 66c-1 24 -1 50 -2 77s-1 55 -2 82c-2 63 -4 131 -6 204l-240 -18c1 -80 3 -152 4 -216
c1 -27 1 -54 2 -80c0 -27 0 -50 1 -71s1 -39 2 -52v-22c0 -3 0 -9 -1 -17c-1 -9 -3 -17 -6 -26c-4 -9 -10 -18 -18 -25c-9 -7 -20 -11 -35 -11s-27 3 -36 10s-15 15 -19 24s-6 18 -7 27s-2 15 -2 18c0 1 0 9 -1 24c-1 14 -2 32 -3 55c-1 22 -3 47 -4 75c-2 28 -4 57 -5 86
c-3 68 -7 145 -12 231l-252 -19c5 -77 9 -149 14 -214l6 -84c2 -28 4 -54 6 -78c2 -25 4 -46 6 -65c1 -19 3 -34 4 -43zM362 810l-159 130l-62 -85l178 -104z" />
    <glyph glyph-name="Uacute" unicode="&#xda;" horiz-adv-x="713" 
d="M17 203c7 -46 20 -84 40 -114c19 -31 43 -55 71 -72s59 -30 92 -37s67 -11 101 -11c64 0 116 9 155 26s70 39 92 64c21 25 36 53 44 82c7 29 11 56 12 79v45c0 19 0 41 -1 66c-1 24 -1 50 -2 77s-1 55 -2 82c-2 63 -4 131 -6 204l-240 -18c1 -80 3 -152 4 -216
c1 -27 1 -54 2 -80c0 -27 0 -50 1 -71s1 -39 2 -52v-22c0 -3 0 -9 -1 -17c-1 -9 -3 -17 -6 -26c-4 -9 -10 -18 -18 -25c-9 -7 -20 -11 -35 -11s-27 3 -36 10s-15 15 -19 24s-6 18 -7 27s-2 15 -2 18c0 1 0 9 -1 24c-1 14 -2 32 -3 55c-1 22 -3 47 -4 75c-2 28 -4 57 -5 86
c-3 68 -7 145 -12 231l-252 -19c5 -77 9 -149 14 -214l6 -84c2 -28 4 -54 6 -78c2 -25 4 -46 6 -65c1 -19 3 -34 4 -43zM413 940l-158 -130l43 -59l178 104z" />
    <glyph glyph-name="Ucircumflex" unicode="&#xdb;" horiz-adv-x="713" 
d="M17 203c7 -46 20 -84 40 -114c19 -31 43 -55 71 -72s59 -30 92 -37s67 -11 101 -11c64 0 116 9 155 26s70 39 92 64c21 25 36 53 44 82c7 29 11 56 12 79v45c0 19 0 41 -1 66c-1 24 -1 50 -2 77s-1 55 -2 82c-2 63 -4 131 -6 204l-240 -18c1 -80 3 -152 4 -216
c1 -27 1 -54 2 -80c0 -27 0 -50 1 -71s1 -39 2 -52v-22c0 -3 0 -9 -1 -17c-1 -9 -3 -17 -6 -26c-4 -9 -10 -18 -18 -25c-9 -7 -20 -11 -35 -11s-27 3 -36 10s-15 15 -19 24s-6 18 -7 27s-2 15 -2 18c0 1 0 9 -1 24c-1 14 -2 32 -3 55c-1 22 -3 47 -4 75c-2 28 -4 57 -5 86
c-3 68 -7 145 -12 231l-252 -19c5 -77 9 -149 14 -214l6 -84c2 -28 4 -54 6 -78c2 -25 4 -46 6 -65c1 -19 3 -34 4 -43zM312 915l-142 -128l42 -32l94 84l86 -84l51 32z" />
    <glyph glyph-name="Udieresis" unicode="&#xdc;" horiz-adv-x="713" 
d="M17 203c7 -46 20 -84 40 -114c19 -31 43 -55 71 -72s59 -30 92 -37s67 -11 101 -11c64 0 116 9 155 26s70 39 92 64c21 25 36 53 44 82c7 29 11 56 12 79v45c0 19 0 41 -1 66c-1 24 -1 50 -2 77s-1 55 -2 82c-2 63 -4 131 -6 204l-240 -18c1 -80 3 -152 4 -216
c1 -27 1 -54 2 -80c0 -27 0 -50 1 -71s1 -39 2 -52v-22c0 -3 0 -9 -1 -17c-1 -9 -3 -17 -6 -26c-4 -9 -10 -18 -18 -25c-9 -7 -20 -11 -35 -11s-27 3 -36 10s-15 15 -19 24s-6 18 -7 27s-2 15 -2 18c0 1 0 9 -1 24c-1 14 -2 32 -3 55c-1 22 -3 47 -4 75c-2 28 -4 57 -5 86
c-3 68 -7 145 -12 231l-252 -19c5 -77 9 -149 14 -214l6 -84c2 -28 4 -54 6 -78c2 -25 4 -46 6 -65c1 -19 3 -34 4 -43zM252 875c-16 14 -33 18 -52 12c-15 -3 -25 -9 -30 -17c-6 -8 -10 -16 -12 -23c-3 -9 -4 -18 -3 -27s4 -18 10 -27c7 -9 14 -15 23 -18s18 -5 28 -4
c10 0 19 2 26 6s12 9 16 14c9 12 14 26 13 43s-8 30 -19 41zM430 875c-16 14 -33 18 -52 12c-15 -3 -25 -9 -30 -17c-6 -8 -10 -16 -12 -23c-3 -9 -4 -18 -3 -27s4 -18 10 -27c7 -9 14 -15 23 -18s18 -5 28 -4c10 0 19 2 26 6s12 9 16 14c9 12 14 26 13 43s-8 30 -19 41z
" />
    <glyph glyph-name="Yacute" unicode="&#xdd;" horiz-adv-x="735" 
d="M-32 662l270 -379l-7 -311l240 12l-19 299l205 416l-254 1l-66 -243l-106 219zM265 810l43 -59l178 104l-63 85z" />
    <glyph glyph-name="Thorn" unicode="&#xde;" horiz-adv-x="686" 
d="M360 514c-25 0 -51 -3 -76 -9c-26 -7 -50 -17 -72 -30l1 218l-229 3l14 -899h204l8 224c21 -13 44 -24 67 -31c23 -8 45 -13 67 -14c89 -7 156 14 201 62c44 47 67 121 69 221c1 51 -5 92 -18 125s-32 59 -55 78s-51 33 -82 41c-31 7 -64 11 -99 11zM314 165
c-17 0 -30 3 -41 8s-19 11 -25 18c-7 7 -11 16 -14 25s-4 18 -4 27c0 19 7 37 20 52s35 23 64 25c10 1 20 0 31 -1c11 -2 20 -6 29 -11c8 -5 15 -12 21 -21c5 -9 9 -21 10 -36c1 -25 -6 -46 -23 -62s-40 -24 -68 -24z" />
    <glyph glyph-name="germandbls" unicode="&#xdf;" horiz-adv-x="704" 
d="M624 249c-5 27 -16 49 -31 66c-16 17 -33 30 -50 39c-20 11 -42 20 -65 25c21 5 38 12 52 21c13 9 24 21 32 34s14 27 17 44c3 16 4 33 3 51c-1 36 -11 66 -29 89c-19 23 -49 42 -90 55c-19 7 -38 12 -56 15s-37 5 -57 7c-20 1 -41 2 -64 3c-23 0 -50 0 -79 1l-193 -1
l-19 -648l222 -5l-2 514c41 3 75 2 100 -5s43 -16 55 -27c11 -11 17 -23 16 -36s-7 -25 -17 -35c-9 -9 -18 -15 -27 -19c-9 -5 -18 -8 -26 -11c-9 -3 -19 -4 -28 -5v-108c5 1 12 0 19 -1c6 -1 13 -3 21 -5c7 -3 16 -6 25 -11c13 -7 23 -19 30 -34c6 -16 7 -32 3 -47
c-4 -16 -14 -30 -30 -41c-16 -12 -39 -17 -70 -15l-1 -185c66 2 122 11 168 28c46 16 83 37 110 63c27 25 46 54 56 86c9 32 11 65 5 98z" />
    <glyph glyph-name="agrave" unicode="&#xe0;" horiz-adv-x="649" 
d="M523 503l42 -525l-233 8l-1 44c-9 -7 -20 -14 -35 -20c-13 -5 -29 -10 -50 -13c-21 -4 -46 -6 -76 -5c-30 0 -57 4 -81 12s-44 21 -60 39c-17 18 -29 41 -37 70c-9 29 -13 64 -13 106c1 83 17 146 49 190s83 68 153 71c29 1 52 1 70 -1c18 -3 33 -6 44 -9
c12 -4 22 -9 29 -14v49zM226 183c31 0 55 8 72 24c16 15 23 34 22 57c-1 11 -4 21 -9 28s-12 13 -20 18c-9 4 -18 7 -28 9c-10 1 -20 2 -30 2c-17 -1 -31 -3 -42 -7c-11 -5 -20 -10 -26 -16c-7 -7 -11 -14 -14 -21c-3 -8 -4 -16 -4 -24s1 -16 4 -24c3 -9 7 -16 14 -23
c6 -7 14 -13 25 -17c10 -4 22 -6 36 -6zM337 616l-159 130l-62 -85l178 -104z" />
    <glyph glyph-name="aacute" unicode="&#xe1;" horiz-adv-x="649" 
d="M565 -22l-42 525l-199 2v-49c-7 5 -17 10 -29 14c-11 3 -26 6 -44 9c-18 2 -41 2 -70 1c-70 -3 -121 -27 -153 -71s-48 -107 -49 -190c0 -42 4 -77 13 -106c8 -29 20 -52 37 -70c16 -18 36 -31 60 -39s51 -12 81 -12c30 -1 55 1 76 5c21 3 37 8 50 13c15 6 26 13 35 20
l1 -44zM226 183c-14 0 -26 2 -36 6c-11 4 -19 10 -25 17c-7 7 -11 14 -14 23c-3 8 -4 16 -4 24s1 16 4 24c3 7 7 14 14 21c6 6 15 11 26 16c11 4 25 6 42 7c10 0 20 -1 30 -2c10 -2 19 -5 28 -9c8 -5 15 -11 20 -18s8 -17 9 -28c1 -23 -6 -42 -22 -57
c-17 -16 -41 -24 -72 -24zM360 740l-158 -130l43 -59l178 104z" />
    <glyph glyph-name="acircumflex" unicode="&#xe2;" horiz-adv-x="649" 
d="M565 -22l-42 525l-199 2v-49c-7 5 -17 10 -29 14c-11 3 -26 6 -44 9c-18 2 -41 2 -70 1c-70 -3 -121 -27 -153 -71s-48 -107 -49 -190c0 -42 4 -77 13 -106c8 -29 20 -52 37 -70c16 -18 36 -31 60 -39s51 -12 81 -12c30 -1 55 1 76 5c21 3 37 8 50 13c15 6 26 13 35 20
l1 -44zM226 183c-14 0 -26 2 -36 6c-11 4 -19 10 -25 17c-7 7 -11 14 -14 23c-3 8 -4 16 -4 24s1 16 4 24c3 7 7 14 14 21c6 6 15 11 26 16c11 4 25 6 42 7c10 0 20 -1 30 -2c10 -2 19 -5 28 -9c8 -5 15 -11 20 -18s8 -17 9 -28c1 -23 -6 -42 -22 -57
c-17 -16 -41 -24 -72 -24zM272 718l-142 -128l42 -32l94 84l86 -84l51 32z" />
    <glyph glyph-name="atilde" unicode="&#xe3;" horiz-adv-x="649" 
d="M523 503l42 -525l-233 8l-1 44c-9 -7 -20 -14 -35 -20c-13 -5 -29 -10 -50 -13c-21 -4 -46 -6 -76 -5c-30 0 -57 4 -81 12s-44 21 -60 39c-17 18 -29 41 -37 70c-9 29 -13 64 -13 106c1 83 17 146 49 190s83 68 153 71c29 1 52 1 70 -1c18 -3 33 -6 44 -9
c12 -4 22 -9 29 -14v49zM226 183c31 0 55 8 72 24c16 15 23 34 22 57c-1 11 -4 21 -9 28s-12 13 -20 18c-9 4 -18 7 -28 9c-10 1 -20 2 -30 2c-17 -1 -31 -3 -42 -7c-11 -5 -20 -10 -26 -16c-7 -7 -11 -14 -14 -21c-3 -8 -4 -16 -4 -24s1 -16 4 -24c3 -9 7 -16 14 -23
c6 -7 14 -13 25 -17c10 -4 22 -6 36 -6zM129 633l55 -57c3 5 5 9 8 14c2 4 5 8 8 11l9 9l9 9c7 5 15 8 23 8c9 0 17 -3 23 -9l18 -18c6 -7 13 -13 22 -19c9 -5 20 -8 33 -8c9 0 17 2 26 7s19 11 28 18s17 14 24 21c3 4 7 8 10 11l7 7l-52 45c-2 -4 -4 -8 -7 -11
s-5 -7 -8 -10c-5 -6 -10 -11 -15 -14c-6 -4 -12 -6 -18 -6c-9 0 -16 3 -21 10c-3 3 -5 7 -7 11c-3 3 -6 7 -9 12c-5 7 -12 15 -21 22s-21 11 -36 11c-11 0 -23 -3 -36 -10s-23 -14 -32 -21c-11 -9 -20 -17 -26 -24c-3 -4 -6 -8 -9 -11s-5 -6 -6 -8z" />
    <glyph glyph-name="adieresis" unicode="&#xe4;" horiz-adv-x="649" 
d="M565 -22l-42 525l-199 2v-49c-7 5 -17 10 -29 14c-11 3 -26 6 -44 9c-18 2 -41 2 -70 1c-70 -3 -121 -27 -153 -71s-48 -107 -49 -190c0 -42 4 -77 13 -106c8 -29 20 -52 37 -70c16 -18 36 -31 60 -39s51 -12 81 -12c30 -1 55 1 76 5c21 3 37 8 50 13c15 6 26 13 35 20
l1 -44zM226 183c-14 0 -26 2 -36 6c-11 4 -19 10 -25 17c-7 7 -11 14 -14 23c-3 8 -4 16 -4 24s1 16 4 24c3 7 7 14 14 21c6 6 15 11 26 16c11 4 25 6 42 7c10 0 20 -1 30 -2c10 -2 19 -5 28 -9c8 -5 15 -11 20 -18s8 -17 9 -28c1 -23 -6 -42 -22 -57
c-17 -16 -41 -24 -72 -24zM239 678c-16 14 -33 18 -52 12c-15 -3 -25 -9 -30 -17c-6 -8 -10 -16 -12 -23c-3 -9 -4 -18 -3 -27s4 -18 10 -27c7 -9 14 -15 23 -18s18 -5 28 -4c10 0 19 2 26 6s12 9 16 14c9 12 14 26 13 43s-8 30 -19 41zM417 678c-16 14 -33 18 -52 12
c-15 -3 -25 -9 -30 -17c-6 -8 -10 -16 -12 -23c-3 -9 -4 -18 -3 -27s4 -18 10 -27c7 -9 14 -15 23 -18s18 -5 28 -4c10 0 19 2 26 6s12 9 16 14c9 12 14 26 13 43s-8 30 -19 41z" />
    <glyph glyph-name="aring" unicode="&#xe5;" horiz-adv-x="649" 
d="M565 -22l-42 525l-199 2v-49c-7 5 -17 10 -29 14c-11 3 -26 6 -44 9c-18 2 -41 2 -70 1c-70 -3 -121 -27 -153 -71s-48 -107 -49 -190c0 -42 4 -77 13 -106c8 -29 20 -52 37 -70c16 -18 36 -31 60 -39s51 -12 81 -12c30 -1 55 1 76 5c21 3 37 8 50 13c15 6 26 13 35 20
l1 -44zM226 183c-14 0 -26 2 -36 6c-11 4 -19 10 -25 17c-7 7 -11 14 -14 23c-3 8 -4 16 -4 24s1 16 4 24c3 7 7 14 14 21c6 6 15 11 26 16c11 4 25 6 42 7c10 0 20 -1 30 -2c10 -2 19 -5 28 -9c8 -5 15 -11 20 -18s8 -17 9 -28c1 -23 -6 -42 -22 -57
c-17 -16 -41 -24 -72 -24zM326 728c-23 21 -50 28 -80 20c-22 -6 -37 -15 -46 -27s-15 -24 -18 -35c-4 -13 -6 -27 -5 -42s6 -28 15 -41c11 -15 23 -24 36 -29s28 -7 43 -6s28 4 39 11c11 6 19 13 26 21c7 9 12 19 15 31c3 11 5 23 4 35c-1 11 -4 23 -9 34s-11 20 -20 28z
M293 642c-3 -3 -6 -6 -10 -8c-4 -3 -9 -4 -15 -4c-13 -1 -23 3 -30 13c-5 9 -6 20 -3 31c1 5 4 9 7 14c3 4 8 7 17 10c11 3 21 1 30 -7c7 -7 11 -15 12 -24c0 -9 -3 -18 -8 -25z" />
    <glyph glyph-name="ae" unicode="&#xe6;" horiz-adv-x="1029" 
d="M810 172c-10 -9 -22 -17 -37 -25s-33 -14 -53 -17c-44 -7 -79 -2 -105 14s-43 40 -50 72l378 57c-1 9 -3 20 -6 32c-3 10 -7 22 -12 36s-12 29 -21 45s-21 32 -37 48s-36 30 -61 42s-54 21 -87 27c-34 6 -73 7 -118 3c-36 -4 -68 -12 -96 -25s-52 -30 -71 -49
c-16 11 -33 21 -50 29c-17 7 -35 14 -52 19s-34 8 -50 11c-17 2 -32 3 -46 3c-13 0 -28 -1 -47 -3c-19 -3 -38 -7 -58 -14c-21 -7 -41 -17 -61 -29c-21 -13 -38 -29 -53 -48s-27 -43 -34 -71c-8 -28 -10 -61 -6 -99c7 -59 21 -105 42 -138c21 -34 46 -59 75 -76
s61 -26 96 -29s69 -2 103 1c28 3 55 10 82 19c26 9 50 21 71 36c23 -20 52 -36 86 -48c33 -12 74 -17 121 -16c29 1 56 3 80 8c23 4 45 9 64 16c19 6 35 13 50 22c15 8 27 16 38 24c25 19 43 41 55 66l-100 90c-8 -12 -18 -23 -30 -33zM242 173c-16 0 -30 2 -41 7
s-20 11 -27 19c-7 7 -12 16 -15 25s-5 19 -5 28s2 17 5 26s8 17 15 24s16 13 29 18c12 5 28 7 47 8c11 0 23 -1 34 -3s22 -5 31 -10s16 -11 22 -19c6 -9 10 -19 11 -32c1 -25 -7 -47 -25 -64c-18 -18 -45 -27 -81 -27zM567 339c6 11 16 22 29 33s31 17 56 18
c21 1 39 -2 53 -9c14 -8 25 -17 33 -26c9 -11 16 -24 21 -39l-204 -23c1 17 5 32 12 46z" />
    <glyph glyph-name="ccedilla" unicode="&#xe7;" horiz-adv-x="623" 
d="M300 -33c0 4 0 7 1 9c50 -1 91 2 124 9c33 6 59 13 79 20c23 9 41 19 54 30l-82 152c-13 -9 -29 -16 -46 -23c-15 -5 -32 -10 -51 -14s-40 -5 -61 -3c-42 4 -72 16 -90 35s-26 44 -25 76c1 15 4 29 11 44c6 14 15 26 28 37c12 10 28 17 47 22c19 4 41 3 67 -2
c25 -5 46 -12 63 -21s30 -17 39 -26c11 -10 20 -20 26 -31l66 167c-17 15 -37 28 -61 40c-21 10 -48 19 -79 27c-32 8 -70 12 -114 11s-84 -8 -120 -22c-37 -15 -68 -35 -94 -60c-27 -26 -47 -56 -61 -91c-15 -35 -21 -74 -20 -115c1 -38 6 -72 15 -102s23 -56 42 -78
s43 -40 73 -53c29 -13 65 -22 107 -26c-8 -8 -12 -17 -12 -28c1 -10 7 -18 18 -23s24 -10 37 -14c13 -5 24 -9 34 -14c9 -5 13 -12 10 -21s-10 -16 -21 -20s-23 -6 -36 -7c-15 -1 -31 -1 -48 2l3 -72c33 -3 62 -1 86 6s44 16 59 28c15 11 25 24 32 39c6 15 8 29 6 42
s-8 23 -19 30c-11 6 -22 11 -34 14c-13 3 -24 7 -34 10c-11 3 -17 9 -19 16z" />
    <glyph glyph-name="egrave" unicode="&#xe8;" horiz-adv-x="648" 
d="M343 128c20 3 38 9 53 17s27 16 37 25c12 10 22 21 30 33l100 -90c-12 -25 -30 -47 -55 -66c-21 -17 -51 -32 -88 -46c-37 -15 -85 -23 -144 -24c-51 -1 -95 5 -130 19c-36 14 -65 33 -88 56s-41 50 -52 81c-12 30 -19 60 -22 91s-1 62 7 93s22 60 42 87
c19 26 45 48 77 66c31 18 69 29 114 34c45 4 84 3 118 -3c33 -6 62 -15 87 -27s45 -26 61 -42s28 -32 37 -48s16 -31 21 -45s9 -26 12 -36c3 -12 5 -23 6 -32l-378 -57c7 -32 24 -56 50 -72s61 -21 105 -14zM275 388c-25 -1 -43 -7 -56 -18s-23 -22 -29 -33
c-7 -14 -11 -29 -12 -46l204 23c-5 15 -12 28 -21 39c-8 9 -19 18 -33 26c-14 7 -32 10 -53 9zM337 616l-159 130l-62 -85l178 -104z" />
    <glyph glyph-name="eacute" unicode="&#xe9;" horiz-adv-x="648" 
d="M343 128c-44 -7 -79 -2 -105 14s-43 40 -50 72l378 57c-1 9 -3 20 -6 32c-3 10 -7 22 -12 36s-12 29 -21 45s-21 32 -37 48s-36 30 -61 42s-54 21 -87 27c-34 6 -73 7 -118 3c-45 -5 -83 -16 -114 -34c-32 -18 -58 -40 -77 -66c-20 -27 -34 -56 -42 -87s-10 -62 -7 -93
s10 -61 22 -91c11 -31 29 -58 52 -81s52 -42 88 -56c35 -14 79 -20 130 -19c59 1 107 9 144 24c37 14 67 29 88 46c25 19 43 41 55 66l-100 90c-8 -12 -18 -23 -30 -33c-10 -9 -22 -17 -37 -25s-33 -14 -53 -17zM275 388c21 1 39 -2 53 -9c14 -8 25 -17 33 -26
c9 -11 16 -24 21 -39l-204 -23c1 17 5 32 12 46c6 11 16 22 29 33s31 17 56 18zM360 740l-158 -130l43 -59l178 104z" />
    <glyph glyph-name="ecircumflex" unicode="&#xea;" horiz-adv-x="648" 
d="M343 128c-44 -7 -79 -2 -105 14s-43 40 -50 72l378 57c-1 9 -3 20 -6 32c-3 10 -7 22 -12 36s-12 29 -21 45s-21 32 -37 48s-36 30 -61 42s-54 21 -87 27c-34 6 -73 7 -118 3c-45 -5 -83 -16 -114 -34c-32 -18 -58 -40 -77 -66c-20 -27 -34 -56 -42 -87s-10 -62 -7 -93
s10 -61 22 -91c11 -31 29 -58 52 -81s52 -42 88 -56c35 -14 79 -20 130 -19c59 1 107 9 144 24c37 14 67 29 88 46c25 19 43 41 55 66l-100 90c-8 -12 -18 -23 -30 -33c-10 -9 -22 -17 -37 -25s-33 -14 -53 -17zM275 388c21 1 39 -2 53 -9c14 -8 25 -17 33 -26
c9 -11 16 -24 21 -39l-204 -23c1 17 5 32 12 46c6 11 16 22 29 33s31 17 56 18zM272 718l-142 -128l42 -32l94 84l86 -84l51 32z" />
    <glyph glyph-name="edieresis" unicode="&#xeb;" horiz-adv-x="648" 
d="M343 128c-44 -7 -79 -2 -105 14s-43 40 -50 72l378 57c-1 9 -3 20 -6 32c-3 10 -7 22 -12 36s-12 29 -21 45s-21 32 -37 48s-36 30 -61 42s-54 21 -87 27c-34 6 -73 7 -118 3c-45 -5 -83 -16 -114 -34c-32 -18 -58 -40 -77 -66c-20 -27 -34 -56 -42 -87s-10 -62 -7 -93
s10 -61 22 -91c11 -31 29 -58 52 -81s52 -42 88 -56c35 -14 79 -20 130 -19c59 1 107 9 144 24c37 14 67 29 88 46c25 19 43 41 55 66l-100 90c-8 -12 -18 -23 -30 -33c-10 -9 -22 -17 -37 -25s-33 -14 -53 -17zM275 388c21 1 39 -2 53 -9c14 -8 25 -17 33 -26
c9 -11 16 -24 21 -39l-204 -23c1 17 5 32 12 46c6 11 16 22 29 33s31 17 56 18zM239 678c-16 14 -33 18 -52 12c-15 -3 -25 -9 -30 -17c-6 -8 -10 -16 -12 -23c-3 -9 -4 -18 -3 -27s4 -18 10 -27c7 -9 14 -15 23 -18s18 -5 28 -4c10 0 19 2 26 6s12 9 16 14
c9 12 14 26 13 43s-8 30 -19 41zM417 678c-16 14 -33 18 -52 12c-15 -3 -25 -9 -30 -17c-6 -8 -10 -16 -12 -23c-3 -9 -4 -18 -3 -27s4 -18 10 -27c7 -9 14 -15 23 -18s18 -5 28 -4c10 0 19 2 26 6s12 9 16 14c9 12 14 26 13 43s-8 30 -19 41z" />
    <glyph glyph-name="igrave" unicode="&#xec;" 
d="M15 468l202 -5l-4 -482l-220 -1zM185 582l-159 130l-62 -85l178 -104z" />
    <glyph glyph-name="iacute" unicode="&#xed;" 
d="M15 468l-22 -488l220 1l4 482zM232 711l-158 -130l43 -59l178 104z" />
    <glyph glyph-name="icircumflex" unicode="&#xee;" 
d="M15 468l-22 -488l220 1l4 482zM133 682l-142 -128l42 -32l94 84l86 -84l51 32z" />
    <glyph glyph-name="idieresis" unicode="&#xef;" 
d="M217 463l-202 5l-22 -488l220 1zM76 625c-16 14 -33 18 -52 12c-15 -3 -25 -9 -30 -17c-6 -8 -10 -16 -12 -23c-3 -9 -4 -18 -3 -27s4 -18 10 -27c7 -9 14 -15 23 -18s18 -5 28 -4c10 0 19 2 26 6s12 9 16 14c9 12 14 26 13 43s-8 30 -19 41zM254 625
c-16 14 -33 18 -52 12c-15 -3 -25 -9 -30 -17c-6 -8 -10 -16 -12 -23c-3 -9 -4 -18 -3 -27s4 -18 10 -27c7 -9 14 -15 23 -18s18 -5 28 -4c10 0 19 2 26 6s12 9 16 14c9 12 14 26 13 43s-8 30 -19 41z" />
    <glyph glyph-name="eth" unicode="&#xf0;" horiz-adv-x="664" 
d="M551 1l19 532c0 20 -3 42 -9 66c-7 23 -22 48 -45 75c-27 31 -64 55 -110 70c-47 15 -96 25 -148 28l-9 -190c11 -1 22 -3 33 -6c9 -3 19 -6 30 -9c10 -4 19 -9 26 -15c15 -11 24 -25 27 -41s4 -35 3 -56v-10c0 -4 0 -9 -1 -14c-12 7 -26 13 -42 19c-13 5 -30 10 -50 14
c-21 4 -44 6 -69 6s-49 -4 -73 -11s-46 -19 -65 -36c-20 -17 -37 -39 -50 -66s-22 -60 -25 -99c-4 -41 -4 -76 1 -106s13 -56 26 -77c13 -22 30 -40 51 -53s45 -23 73 -30c25 -6 48 -9 70 -9c22 -1 42 0 60 3s34 6 47 10s22 7 29 10l3 -28zM252 157c-14 0 -26 2 -35 6
c-10 4 -18 9 -25 16s-11 14 -14 23c-3 8 -4 16 -4 23c0 8 1 16 4 24c3 7 7 14 13 21c6 6 14 11 25 16c11 4 25 6 42 7c10 1 20 0 30 -1c9 -2 18 -5 26 -9s15 -10 20 -17s9 -16 10 -27c1 -22 -6 -41 -22 -57s-39 -24 -70 -25z" />
    <glyph glyph-name="ntilde" unicode="&#xf1;" horiz-adv-x="710" 
d="M-14 -9l259 -1v121v47c0 15 0 30 1 43c0 13 0 25 1 35s1 17 2 22c3 18 10 32 19 42c9 9 20 14 35 13c15 0 28 -5 37 -14s15 -25 20 -46c1 -7 3 -15 5 -26c1 -11 3 -24 4 -37c1 -14 3 -29 5 -44c1 -16 3 -31 4 -46c3 -35 6 -73 9 -113l248 -6c-11 51 -22 100 -33 147
c-5 19 -9 39 -14 60c-5 20 -10 39 -15 58s-10 36 -14 52c-5 15 -9 28 -13 38s-9 23 -14 38c-6 15 -15 30 -26 45c-12 15 -28 27 -47 37c-20 10 -46 15 -77 15c-32 -1 -57 -4 -76 -11s-33 -14 -44 -23c-12 -10 -21 -21 -27 -33l-2 72l-233 3zM139 633l55 -57c3 5 5 9 8 14
c2 4 5 8 8 11l9 9l9 9c7 5 15 8 23 8c9 0 17 -3 23 -9l18 -18c6 -7 13 -13 22 -19c9 -5 20 -8 33 -8c9 0 17 2 26 7s19 11 28 18s17 14 24 21c3 4 7 8 10 11l7 7l-52 45c-2 -4 -4 -8 -7 -11s-5 -7 -8 -10c-5 -6 -10 -11 -15 -14c-6 -4 -12 -6 -18 -6c-9 0 -16 3 -21 10
c-3 3 -5 7 -7 11c-3 3 -6 7 -9 12c-5 7 -12 15 -21 22s-21 11 -36 11c-11 0 -23 -3 -36 -10s-23 -14 -32 -21c-11 -9 -20 -17 -26 -24c-3 -4 -6 -8 -9 -11s-5 -6 -6 -8z" />
    <glyph glyph-name="ograve" unicode="&#xf2;" horiz-adv-x="626" 
d="M550 268c2 -61 -5 -111 -22 -149s-39 -67 -66 -88c-28 -21 -60 -36 -95 -44s-70 -13 -105 -14s-70 2 -103 10c-33 7 -63 21 -89 40c-27 19 -48 45 -65 77c-17 31 -27 71 -29 118s6 87 25 121c18 34 41 62 69 85s58 40 90 53c31 12 60 20 85 24c13 2 29 3 49 4
c19 0 40 -2 62 -6s44 -11 67 -20c23 -10 43 -24 62 -42c18 -18 33 -41 45 -68c12 -28 19 -62 20 -101zM263 149c35 -1 63 9 84 30c21 20 31 46 29 78c-1 18 -5 33 -12 44s-16 20 -27 27c-11 6 -22 10 -35 12s-26 3 -39 2c-37 -2 -63 -12 -80 -31s-26 -40 -25 -64
c0 -11 2 -23 5 -34s8 -22 16 -31s19 -17 33 -23c13 -7 30 -10 51 -10zM337 616l-159 130l-62 -85l178 -104z" />
    <glyph glyph-name="oacute" unicode="&#xf3;" horiz-adv-x="626" 
d="M550 268c-1 39 -8 73 -20 101c-12 27 -27 50 -45 68c-19 18 -39 32 -62 42c-23 9 -45 16 -67 20s-43 6 -62 6c-20 -1 -36 -2 -49 -4c-25 -4 -54 -12 -85 -24c-32 -13 -62 -30 -90 -53s-51 -51 -69 -85c-19 -34 -27 -74 -25 -121s12 -87 29 -118c17 -32 38 -58 65 -77
c26 -19 56 -33 89 -40c33 -8 68 -11 103 -10s70 6 105 14s67 23 95 44c27 21 49 50 66 88s24 88 22 149zM263 149c-21 0 -38 3 -51 10c-14 6 -25 14 -33 23s-13 20 -16 31s-5 23 -5 34c-1 24 8 45 25 64s43 29 80 31c13 1 26 0 39 -2s24 -6 35 -12c11 -7 20 -16 27 -27
s11 -26 12 -44c2 -32 -8 -58 -29 -78c-21 -21 -49 -31 -84 -30zM360 740l-158 -130l43 -59l178 104z" />
    <glyph glyph-name="ocircumflex" unicode="&#xf4;" horiz-adv-x="626" 
d="M550 268c-1 39 -8 73 -20 101c-12 27 -27 50 -45 68c-19 18 -39 32 -62 42c-23 9 -45 16 -67 20s-43 6 -62 6c-20 -1 -36 -2 -49 -4c-25 -4 -54 -12 -85 -24c-32 -13 -62 -30 -90 -53s-51 -51 -69 -85c-19 -34 -27 -74 -25 -121s12 -87 29 -118c17 -32 38 -58 65 -77
c26 -19 56 -33 89 -40c33 -8 68 -11 103 -10s70 6 105 14s67 23 95 44c27 21 49 50 66 88s24 88 22 149zM263 149c-21 0 -38 3 -51 10c-14 6 -25 14 -33 23s-13 20 -16 31s-5 23 -5 34c-1 24 8 45 25 64s43 29 80 31c13 1 26 0 39 -2s24 -6 35 -12c11 -7 20 -16 27 -27
s11 -26 12 -44c2 -32 -8 -58 -29 -78c-21 -21 -49 -31 -84 -30zM272 718l-142 -128l42 -32l94 84l86 -84l51 32z" />
    <glyph glyph-name="otilde" unicode="&#xf5;" horiz-adv-x="626" 
d="M550 268c2 -61 -5 -111 -22 -149s-39 -67 -66 -88c-28 -21 -60 -36 -95 -44s-70 -13 -105 -14s-70 2 -103 10c-33 7 -63 21 -89 40c-27 19 -48 45 -65 77c-17 31 -27 71 -29 118s6 87 25 121c18 34 41 62 69 85s58 40 90 53c31 12 60 20 85 24c13 2 29 3 49 4
c19 0 40 -2 62 -6s44 -11 67 -20c23 -10 43 -24 62 -42c18 -18 33 -41 45 -68c12 -28 19 -62 20 -101zM263 149c35 -1 63 9 84 30c21 20 31 46 29 78c-1 18 -5 33 -12 44s-16 20 -27 27c-11 6 -22 10 -35 12s-26 3 -39 2c-37 -2 -63 -12 -80 -31s-26 -40 -25 -64
c0 -11 2 -23 5 -34s8 -22 16 -31s19 -17 33 -23c13 -7 30 -10 51 -10zM129 633l55 -57c3 5 5 9 8 14c2 4 5 8 8 11l9 9l9 9c7 5 15 8 23 8c9 0 17 -3 23 -9l18 -18c6 -7 13 -13 22 -19c9 -5 20 -8 33 -8c9 0 17 2 26 7s19 11 28 18s17 14 24 21c3 4 7 8 10 11l7 7l-52 45
c-2 -4 -4 -8 -7 -11s-5 -7 -8 -10c-5 -6 -10 -11 -15 -14c-6 -4 -12 -6 -18 -6c-9 0 -16 3 -21 10c-3 3 -5 7 -7 11c-3 3 -6 7 -9 12c-5 7 -12 15 -21 22s-21 11 -36 11c-11 0 -23 -3 -36 -10s-23 -14 -32 -21c-11 -9 -20 -17 -26 -24c-3 -4 -6 -8 -9 -11s-5 -6 -6 -8z" />
    <glyph glyph-name="odieresis" unicode="&#xf6;" horiz-adv-x="626" 
d="M550 268c-1 39 -8 73 -20 101c-12 27 -27 50 -45 68c-19 18 -39 32 -62 42c-23 9 -45 16 -67 20s-43 6 -62 6c-20 -1 -36 -2 -49 -4c-25 -4 -54 -12 -85 -24c-32 -13 -62 -30 -90 -53s-51 -51 -69 -85c-19 -34 -27 -74 -25 -121s12 -87 29 -118c17 -32 38 -58 65 -77
c26 -19 56 -33 89 -40c33 -8 68 -11 103 -10s70 6 105 14s67 23 95 44c27 21 49 50 66 88s24 88 22 149zM263 149c-21 0 -38 3 -51 10c-14 6 -25 14 -33 23s-13 20 -16 31s-5 23 -5 34c-1 24 8 45 25 64s43 29 80 31c13 1 26 0 39 -2s24 -6 35 -12c11 -7 20 -16 27 -27
s11 -26 12 -44c2 -32 -8 -58 -29 -78c-21 -21 -49 -31 -84 -30zM239 678c-16 14 -33 18 -52 12c-15 -3 -25 -9 -30 -17c-6 -8 -10 -16 -12 -23c-3 -9 -4 -18 -3 -27s4 -18 10 -27c7 -9 14 -15 23 -18s18 -5 28 -4c10 0 19 2 26 6s12 9 16 14c9 12 14 26 13 43s-8 30 -19 41z
M417 678c-16 14 -33 18 -52 12c-15 -3 -25 -9 -30 -17c-6 -8 -10 -16 -12 -23c-3 -9 -4 -18 -3 -27s4 -18 10 -27c7 -9 14 -15 23 -18s18 -5 28 -4c10 0 19 2 26 6s12 9 16 14c9 12 14 26 13 43s-8 30 -19 41z" />
    <glyph glyph-name="divide" unicode="&#xf7;" horiz-adv-x="589" 
d="M297 581c-18 16 -39 21 -62 15c-17 -5 -29 -12 -36 -21s-11 -18 -14 -27c-3 -11 -4 -22 -3 -33c0 -11 4 -22 11 -31c9 -11 18 -19 28 -22c10 -4 21 -6 33 -5s22 3 31 8c8 5 14 10 19 16c11 14 16 31 15 51s-9 36 -22 49zM295 217c-19 17 -39 22 -62 15
c-17 -5 -29 -12 -35 -21c-7 -9 -11 -18 -14 -27c-3 -10 -5 -21 -4 -32s5 -22 12 -31c8 -11 17 -19 28 -22c10 -4 21 -6 33 -6c11 1 21 3 30 8c8 5 15 10 20 17c11 14 16 31 15 51s-9 36 -23 48zM-18 267l525 17l-4 130l-511 -4z" />
    <glyph glyph-name="oslash" unicode="&#xf8;" horiz-adv-x="626" 
d="M552 269c-1 47 -10 86 -27 117c-17 30 -38 54 -62 71l71 100l-60 35l-73 -103c-30 10 -59 16 -87 17c-29 1 -51 0 -68 -3c-25 -4 -54 -12 -85 -24c-32 -13 -62 -30 -90 -53s-51 -52 -69 -86c-19 -34 -27 -74 -25 -121s11 -87 28 -118c17 -32 38 -58 64 -77l-69 -97
l63 -31l68 95c21 -7 42 -12 64 -15s45 -3 68 -2c35 1 70 6 105 14s67 23 95 44c27 21 50 50 67 88s24 88 22 149zM158 247c0 25 9 47 26 66s43 29 80 31h17c5 0 11 -1 16 -2l-116 -161c-9 9 -14 20 -17 32c-3 11 -5 23 -6 34zM264 150c-3 0 -6 0 -9 1h-10l114 160
c5 -7 10 -14 13 -23s4 -19 5 -30c2 -32 -8 -58 -29 -78c-21 -21 -49 -31 -84 -30z" />
    <glyph glyph-name="ugrave" unicode="&#xf9;" horiz-adv-x="707" 
d="M616 -19l-37 494l-214 3c-1 -27 -1 -53 -1 -76c-1 -20 -1 -40 -1 -60v-45v-71c-1 -21 -3 -38 -6 -51c-5 -21 -13 -35 -24 -41s-22 -9 -35 -9c-15 0 -28 4 -40 12c-13 7 -21 23 -25 46c-1 5 -2 13 -2 23c-1 10 -1 21 -1 33v37c0 12 0 23 1 33c0 9 0 23 1 40
c0 17 0 33 1 50c1 19 1 40 2 61l-228 8c-7 -51 -11 -100 -14 -147c-1 -20 -2 -41 -2 -62c-1 -21 0 -42 1 -62s2 -39 5 -57s7 -34 12 -47c11 -27 22 -49 35 -64c12 -16 26 -28 43 -36s36 -13 58 -16c21 -3 46 -4 75 -5c28 -1 52 1 72 6c19 5 36 11 49 18c15 7 27 16 37 27
l3 -36zM370 616l-159 130l-62 -85l178 -104z" />
    <glyph glyph-name="uacute" unicode="&#xfa;" horiz-adv-x="707" 
d="M616 -19l-37 494l-214 3c-1 -27 -1 -53 -1 -76c-1 -20 -1 -40 -1 -60v-45v-71c-1 -21 -3 -38 -6 -51c-5 -21 -13 -35 -24 -41s-22 -9 -35 -9c-15 0 -28 4 -40 12c-13 7 -21 23 -25 46c-1 5 -2 13 -2 23c-1 10 -1 21 -1 33v37c0 12 0 23 1 33c0 9 0 23 1 40
c0 17 0 33 1 50c1 19 1 40 2 61l-228 8c-7 -51 -11 -100 -14 -147c-1 -20 -2 -41 -2 -62c-1 -21 0 -42 1 -62s2 -39 5 -57s7 -34 12 -47c11 -27 22 -49 35 -64c12 -16 26 -28 43 -36s36 -13 58 -16c21 -3 46 -4 75 -5c28 -1 52 1 72 6c19 5 36 11 49 18c15 7 27 16 37 27
l3 -36zM360 740l-158 -130l43 -59l178 104z" />
    <glyph glyph-name="ucircumflex" unicode="&#xfb;" horiz-adv-x="707" 
d="M616 -19l-37 494l-214 3c-1 -27 -1 -53 -1 -76c-1 -20 -1 -40 -1 -60v-45v-71c-1 -21 -3 -38 -6 -51c-5 -21 -13 -35 -24 -41s-22 -9 -35 -9c-15 0 -28 4 -40 12c-13 7 -21 23 -25 46c-1 5 -2 13 -2 23c-1 10 -1 21 -1 33v37c0 12 0 23 1 33c0 9 0 23 1 40
c0 17 0 33 1 50c1 19 1 40 2 61l-228 8c-7 -51 -11 -100 -14 -147c-1 -20 -2 -41 -2 -62c-1 -21 0 -42 1 -62s2 -39 5 -57s7 -34 12 -47c11 -27 22 -49 35 -64c12 -16 26 -28 43 -36s36 -13 58 -16c21 -3 46 -4 75 -5c28 -1 52 1 72 6c19 5 36 11 49 18c15 7 27 16 37 27
l3 -36zM305 718l-142 -128l42 -32l94 84l86 -84l51 32z" />
    <glyph glyph-name="udieresis" unicode="&#xfc;" horiz-adv-x="707" 
d="M616 -19l-37 494l-214 3c-1 -27 -1 -53 -1 -76c-1 -20 -1 -40 -1 -60v-45v-71c-1 -21 -3 -38 -6 -51c-5 -21 -13 -35 -24 -41s-22 -9 -35 -9c-15 0 -28 4 -40 12c-13 7 -21 23 -25 46c-1 5 -2 13 -2 23c-1 10 -1 21 -1 33v37c0 12 0 23 1 33c0 9 0 23 1 40
c0 17 0 33 1 50c1 19 1 40 2 61l-228 8c-7 -51 -11 -100 -14 -147c-1 -20 -2 -41 -2 -62c-1 -21 0 -42 1 -62s2 -39 5 -57s7 -34 12 -47c11 -27 22 -49 35 -64c12 -16 26 -28 43 -36s36 -13 58 -16c21 -3 46 -4 75 -5c28 -1 52 1 72 6c19 5 36 11 49 18c15 7 27 16 37 27
l3 -36zM239 678c-16 14 -33 18 -52 12c-15 -3 -25 -9 -30 -17c-6 -8 -10 -16 -12 -23c-3 -9 -4 -18 -3 -27s4 -18 10 -27c7 -9 14 -15 23 -18s18 -5 28 -4c10 0 19 2 26 6s12 9 16 14c9 12 14 26 13 43s-8 30 -19 41zM417 678c-16 14 -33 18 -52 12c-15 -3 -25 -9 -30 -17
c-6 -8 -10 -16 -12 -23c-3 -9 -4 -18 -3 -27s4 -18 10 -27c7 -9 14 -15 23 -18s18 -5 28 -4c10 0 19 2 26 6s12 9 16 14c9 12 14 26 13 43s-8 30 -19 41z" />
    <glyph glyph-name="yacute" unicode="&#xfd;" horiz-adv-x="674" 
d="M62 -232l275 -8l267 754l-251 -5l-77 -328l-65 308l-245 -1l222 -513zM347 740l-158 -130l43 -59l178 104z" />
    <glyph glyph-name="thorn" unicode="&#xfe;" horiz-adv-x="686" 
d="M360 514c-25 0 -51 -3 -76 -9c-26 -7 -50 -17 -72 -30l1 218l-229 3l14 -899h204l8 224c21 -13 44 -24 67 -31c23 -8 45 -13 67 -14c89 -7 156 14 201 62c44 47 67 121 69 221c1 51 -5 92 -18 125s-32 59 -55 78s-51 33 -82 41c-31 7 -64 11 -99 11zM314 165
c-17 0 -30 3 -41 8s-19 11 -25 18c-7 7 -11 16 -14 25s-4 18 -4 27c0 19 7 37 20 52s35 23 64 25c10 1 20 0 31 -1c11 -2 20 -6 29 -11c8 -5 15 -12 21 -21c5 -9 9 -21 10 -36c1 -25 -6 -46 -23 -62s-40 -24 -68 -24z" />
    <glyph glyph-name="ydieresis" unicode="&#xff;" horiz-adv-x="674" 
d="M62 -232l275 -8l267 754l-251 -5l-77 -328l-65 308l-245 -1l222 -513zM230 678c-16 14 -33 18 -52 12c-15 -3 -25 -9 -30 -17c-6 -8 -10 -16 -12 -23c-3 -9 -4 -18 -3 -27s4 -18 10 -27c7 -9 14 -15 23 -18s18 -5 28 -4c10 0 19 2 26 6s12 9 16 14c9 12 14 26 13 43
s-8 30 -19 41zM408 678c-16 14 -33 18 -52 12c-15 -3 -25 -9 -30 -17c-6 -8 -10 -16 -12 -23c-3 -9 -4 -18 -3 -27s4 -18 10 -27c7 -9 14 -15 23 -18s18 -5 28 -4c10 0 19 2 26 6s12 9 16 14c9 12 14 26 13 43s-8 30 -19 41z" />
    <glyph glyph-name="Amacron" unicode="&#x100;" horiz-adv-x="40" 
 />
    <glyph glyph-name="Gbreve" unicode="&#x11e;" horiz-adv-x="732" 
d="M441 452l202 90c-8 15 -18 29 -29 44c-9 13 -21 26 -35 41s-30 28 -49 41c-18 12 -40 22 -66 31s-54 14 -84 17s-61 1 -93 -4c-33 -6 -64 -17 -94 -33c-61 -33 -107 -83 -137 -152s-40 -153 -30 -252c5 -49 17 -92 35 -130c17 -38 40 -70 68 -96c27 -26 59 -46 95 -59
c35 -14 74 -21 115 -21c45 0 83 4 115 13s60 21 84 36c23 15 43 32 60 52c16 20 30 41 43 62c15 23 26 49 33 77c7 27 12 53 15 76c3 27 4 54 3 81l-323 6l2 -117l95 -4c-4 -15 -11 -28 -21 -39c-9 -9 -20 -18 -35 -26c-15 -9 -35 -13 -59 -12c-18 0 -35 3 -50 10
c-16 6 -30 16 -42 29s-22 30 -29 51c-8 20 -12 44 -13 73c-2 57 6 103 23 136s44 53 80 59c18 3 34 2 47 -3s25 -12 35 -21s18 -19 25 -29c6 -11 11 -20 14 -27zM182 840l20 -94l272 6l22 88h-314z" />
    <glyph glyph-name="gbreve" unicode="&#x11f;" horiz-adv-x="637" 
d="M574 519l-199 22l-4 -53c-5 4 -14 7 -26 10c-10 3 -24 5 -42 5c-19 1 -42 2 -71 1c-37 -1 -69 -8 -96 -22s-50 -34 -67 -57c-17 -25 -30 -53 -38 -86c-9 -33 -13 -69 -14 -108s3 -72 12 -99s22 -49 39 -65s40 -28 67 -34c27 -7 58 -10 95 -9c30 1 55 4 76 8
c20 2 36 6 49 10c15 5 26 9 34 15c4 -17 5 -33 4 -48c-1 -13 -5 -26 -11 -39s-17 -24 -32 -31c-13 -7 -27 -10 -42 -11c-16 0 -32 0 -48 4c-17 4 -33 11 -49 19s-31 20 -45 34l-88 -180c22 -12 46 -21 73 -29c23 -6 49 -13 78 -17c29 -5 61 -7 95 -4s64 7 89 15
c25 6 47 15 65 25c18 11 33 21 46 32c12 11 22 23 31 33c16 22 27 46 32 74s7 58 7 91c0 9 0 22 -1 40s-1 40 -2 65s-2 52 -3 81s-3 57 -4 86c-3 68 -6 142 -10 222zM279 183c-14 0 -26 2 -37 6c-11 3 -19 8 -26 15s-13 14 -16 22c-4 7 -6 15 -5 23s3 16 6 24
c3 7 8 14 15 21c7 6 16 11 28 16c11 4 26 6 43 7c20 1 38 -3 55 -11s26 -23 27 -45c1 -23 -5 -41 -20 -55c-15 -15 -38 -22 -70 -23zM90 672l16 -98l346 -8l18 106h-380z" />
    <glyph glyph-name="Idotaccent" unicode="&#x130;" horiz-adv-x="298" 
d="M38 690l-22 -699l242 -7l-2 710zM52 838l-12 -114h216l-2 106z" />
    <glyph glyph-name="dotlessi" unicode="&#x131;" horiz-adv-x="277" 
d="M35 468l-22 -488l220 1l4 482z" />
    <glyph glyph-name="OE" unicode="&#x152;" horiz-adv-x="873" 
d="M793 -21v210l-239 6l-1 117l162 1l1 134l-169 2l-1 105l220 -2l-5 149c-87 -1 -166 -2 -237 -3c-30 -1 -60 -1 -90 -1c-30 -1 -57 -1 -81 -1c-25 -1 -46 -1 -63 -1c-17 -1 -28 -1 -33 -1c-101 -2 -172 -30 -215 -85c-15 -20 -28 -44 -37 -72c-10 -29 -17 -59 -21 -92
c-5 -33 -7 -66 -6 -101c0 -35 2 -68 7 -100c4 -32 10 -62 18 -89s17 -50 28 -68c10 -18 22 -34 37 -47c14 -13 32 -25 53 -34s46 -16 75 -21s64 -8 105 -9h28h58c23 0 50 0 79 1h89c71 1 150 1 238 2zM278 148c-17 0 -31 4 -43 13c-12 8 -22 19 -30 34s-14 32 -18 51
c-5 19 -7 40 -7 63c-1 54 8 94 28 120c19 26 48 38 86 37c7 0 13 -1 19 -2s12 -3 19 -5l3 -299c-18 -8 -37 -12 -57 -12z" />
    <glyph glyph-name="oe" unicode="&#x153;" horiz-adv-x="926" 
d="M624 126c-43 -7 -78 -2 -104 14s-43 40 -51 71l378 57c-2 10 -4 21 -7 33c-3 10 -7 22 -12 36c-5 13 -12 28 -21 44s-21 32 -36 48c-16 16 -36 30 -61 42s-54 21 -87 27c-34 6 -73 7 -117 3c-13 -2 -26 -4 -37 -6c-11 -3 -22 -6 -33 -10c-21 9 -46 17 -75 24
c-30 7 -65 10 -105 9c-44 -1 -84 -8 -120 -23c-37 -15 -68 -34 -94 -59s-46 -55 -60 -90s-20 -72 -19 -113c1 -42 6 -79 17 -111s27 -59 50 -81s52 -39 87 -51s79 -18 130 -19c44 -1 81 1 111 6c30 4 55 9 76 15c17 -6 36 -11 57 -14c20 -3 42 -5 66 -4c59 1 107 9 144 24
s67 30 88 47c25 19 43 41 55 66l-100 89c-8 -12 -18 -23 -30 -33c-10 -9 -22 -17 -37 -25s-33 -13 -53 -16zM556 384c21 1 39 -2 53 -9s25 -16 33 -25c9 -11 16 -24 21 -39l-202 -23c0 17 4 33 11 46c6 11 15 22 28 33c13 10 31 16 56 17zM162 251c1 14 4 28 9 41
s13 24 24 34c10 10 23 18 39 24c15 5 34 7 55 5c-9 -21 -16 -43 -19 -65c-4 -23 -5 -45 -3 -68c1 -13 3 -27 6 -41c2 -14 6 -28 11 -41c-3 0 -5 0 -6 1c-42 4 -72 16 -90 35s-27 44 -26 75z" />
    <glyph glyph-name="Scedilla" unicode="&#x15e;" horiz-adv-x="558" 
d="M45 32c13 -7 29 -14 46 -21c15 -6 34 -12 56 -18s48 -12 77 -17c35 -6 67 -7 96 -4c28 3 53 10 75 20c21 10 40 23 56 38c15 15 28 31 38 49c10 17 18 38 24 63s9 50 9 77c-1 26 -5 52 -14 77s-23 47 -42 66s-39 35 -60 48c-21 12 -41 22 -60 30c-19 7 -37 13 -54 16
s-31 6 -43 8c-23 5 -41 12 -54 22s-15 25 -8 46c5 15 16 23 33 24c16 0 33 -4 51 -12c9 -4 19 -9 28 -15s18 -12 25 -17c9 -7 17 -13 26 -20l74 131c-32 23 -65 40 -100 53c-15 5 -30 10 -47 14s-34 6 -51 7s-35 -1 -52 -4c-18 -3 -35 -9 -52 -18c-34 -18 -60 -39 -78 -64
c-19 -25 -31 -50 -37 -77c-7 -27 -8 -53 -4 -78s11 -47 22 -66c11 -21 29 -38 54 -52s51 -25 78 -34s54 -17 79 -22s43 -9 55 -12c24 -6 39 -15 44 -28s5 -26 0 -39s-20 -21 -43 -22c-23 -2 -54 2 -93 12c-19 5 -37 12 -53 19s-30 15 -41 22c-13 8 -26 17 -37 26zM204 -54
l-8 -78l150 -8l-8 84z" />
    <glyph glyph-name="scedilla" unicode="&#x15f;" horiz-adv-x="490" 
d="M69 164l-68 -141c13 -8 29 -15 48 -22c17 -5 38 -10 63 -15s55 -8 91 -9c37 -1 68 1 94 5c26 3 48 9 66 18s33 20 45 34c12 13 23 30 32 49s13 40 14 64c0 24 -4 47 -13 68s-24 40 -43 55c-20 15 -46 24 -77 26c-34 2 -57 6 -70 12c-13 5 -18 14 -17 26c1 7 7 12 17 17
s22 7 35 6c11 -1 22 -2 32 -4c9 -3 18 -5 25 -8c8 -3 16 -6 23 -10l49 141c-24 7 -49 13 -76 18c-23 4 -48 7 -76 9c-28 1 -56 0 -84 -4c-28 -5 -52 -12 -71 -23c-20 -11 -36 -24 -48 -39c-13 -15 -22 -30 -28 -47s-9 -34 -10 -51c-1 -16 1 -31 5 -45c3 -15 10 -28 19 -40
c9 -13 22 -24 39 -34c17 -11 38 -20 64 -28c14 -5 27 -8 39 -11s23 -5 32 -8s16 -7 21 -11s7 -10 7 -18c-1 -11 -8 -19 -23 -22c-15 -4 -32 -4 -52 0c-16 3 -30 7 -43 12s-24 9 -33 14c-11 5 -20 11 -28 16zM146 -48l-6 -84l156 4l-8 82z" />
    <glyph glyph-name="Scaron" unicode="&#x160;" horiz-adv-x="570" 
d="M21 32c13 -7 29 -14 46 -21c15 -6 34 -12 56 -18s48 -12 77 -17c35 -6 67 -7 96 -4c28 3 53 10 75 20c21 10 40 23 56 38c15 15 28 31 38 49c10 17 18 38 24 63s9 50 9 77c-1 26 -5 52 -14 77s-23 47 -42 66s-39 35 -60 48c-21 12 -41 22 -60 30c-19 7 -37 13 -54 16
s-31 6 -43 8c-23 5 -41 12 -54 22s-15 25 -8 46c5 15 16 23 33 24c16 0 33 -4 51 -12c9 -4 19 -9 28 -15s18 -12 25 -17c9 -7 17 -13 26 -20l74 131c-32 23 -65 40 -100 53c-15 5 -30 10 -47 14s-34 6 -51 7s-35 -1 -52 -4c-18 -3 -35 -9 -52 -18c-34 -18 -60 -39 -78 -64
c-19 -25 -31 -50 -37 -77c-7 -27 -8 -53 -4 -78s11 -47 22 -66c11 -21 29 -38 54 -52s51 -25 78 -34s54 -17 79 -22s43 -9 55 -12c24 -6 39 -15 44 -28s5 -26 0 -39s-20 -21 -43 -22c-23 -2 -54 2 -93 12c-19 5 -37 12 -53 19s-30 15 -41 22c-13 8 -26 17 -37 26zM213 755
l142 128l-42 32l-94 -84l-86 84l-51 -32z" />
    <glyph glyph-name="scaron" unicode="&#x161;" horiz-adv-x="508" 
d="M45 164l-68 -141c13 -8 29 -15 48 -22c17 -5 38 -10 63 -15s55 -8 91 -9c37 -1 68 1 94 5c26 3 48 9 66 18s33 20 45 34c12 13 23 30 32 49s13 40 14 64c0 24 -4 47 -13 68s-24 40 -43 55c-20 15 -46 24 -77 26c-34 2 -57 6 -70 12c-13 5 -18 14 -17 26c1 7 7 12 17 17
s22 7 35 6c11 -1 22 -2 32 -4c9 -3 18 -5 25 -8c8 -3 16 -6 23 -10l49 141c-24 7 -49 13 -76 18c-23 4 -48 7 -76 9c-28 1 -56 0 -84 -4c-28 -5 -52 -12 -71 -23c-20 -11 -36 -24 -48 -39c-13 -15 -22 -30 -28 -47s-9 -34 -10 -51c-1 -16 1 -31 5 -45c3 -15 10 -28 19 -40
c9 -13 22 -24 39 -34c17 -11 38 -20 64 -28c14 -5 27 -8 39 -11s23 -5 32 -8s16 -7 21 -11s7 -10 7 -18c-1 -11 -8 -19 -23 -22c-15 -4 -32 -4 -52 0c-16 3 -30 7 -43 12s-24 9 -33 14c-11 5 -20 11 -28 16zM213 560l142 128l-42 32l-94 -84l-86 84l-51 -32z" />
    <glyph glyph-name="Ydieresis" unicode="&#x178;" horiz-adv-x="735" 
d="M-32 662l270 -379l-7 -311l240 12l-19 299l205 416l-254 1l-66 -243l-106 219zM265 875c-16 14 -33 18 -52 12c-15 -3 -25 -9 -30 -17c-6 -8 -10 -16 -12 -23c-3 -9 -4 -18 -3 -27s4 -18 10 -27c7 -9 14 -15 23 -18s18 -5 28 -4c10 0 19 2 26 6s12 9 16 14
c9 12 14 26 13 43s-8 30 -19 41zM443 875c-16 14 -33 18 -52 12c-15 -3 -25 -9 -30 -17c-6 -8 -10 -16 -12 -23c-3 -9 -4 -18 -3 -27s4 -18 10 -27c7 -9 14 -15 23 -18s18 -5 28 -4c10 0 19 2 26 6s12 9 16 14c9 12 14 26 13 43s-8 30 -19 41z" />
    <glyph glyph-name="Zcaron" unicode="&#x17d;" horiz-adv-x="694" 
d="M625 700h-578v-200h223l-285 -521h615l-14 214l-258 -4zM494 883l-42 32l-94 -84l-86 84l-51 -32l131 -128z" />
    <glyph glyph-name="zcaron" unicode="&#x17e;" horiz-adv-x="576" 
d="M519 498h-500v-144h206l-250 -376h512l-10 154l-201 -3zM254 560l142 128l-42 32l-94 -84l-86 84l-51 -32z" />
    <glyph glyph-name="circumflex" unicode="&#x2c6;" horiz-adv-x="738" 
d="M379 712l-419 -483l184 -95l218 349l172 -335l157 41z" />
    <glyph glyph-name="tilde" unicode="&#x2dc;" horiz-adv-x="683" 
d="M-28 556l113 -121c9 19 20 36 32 51c10 13 22 25 36 36s30 17 47 18c20 2 37 -3 50 -14s26 -24 40 -39c13 -15 29 -28 47 -40c18 -13 42 -19 72 -20c10 0 21 2 32 6c11 3 23 8 34 15c11 6 21 13 32 21s21 16 31 25c23 20 45 42 67 67l-105 96c-9 -16 -19 -30 -30 -42
c-9 -11 -20 -20 -31 -29c-12 -9 -25 -14 -38 -15s-25 2 -34 9s-18 15 -26 26s-16 22 -24 35s-18 24 -29 35s-25 19 -40 26s-34 9 -57 8c-30 -2 -58 -11 -84 -27c-27 -16 -50 -34 -70 -53c-23 -22 -45 -47 -65 -74z" />
    <glyph glyph-name="endash" unicode="&#x2013;" horiz-adv-x="525" 
d="M-10 261l443 6l1 135l-450 -5z" />
    <glyph glyph-name="emdash" unicode="&#x2014;" horiz-adv-x="585" 
d="M-18 256l519 16l-4 129l-505 -4z" />
    <glyph glyph-name="quoteleft" unicode="&#x2018;" 
d="M82 700l-110 -292l96 -1l169 291z" />
    <glyph glyph-name="quoteright" unicode="&#x2019;" 
d="M82 700l-110 -292l96 -1l169 291z" />
    <glyph glyph-name="quotesinglbase" unicode="&#x201a;" horiz-adv-x="230" 
d="M32 143l-110 -292l97 -2l169 292z" />
    <glyph glyph-name="quotedblleft" unicode="&#x201c;" horiz-adv-x="520" 
d="M82 700l-110 -292l96 -1l169 291zM287 700l-110 -292l96 -1l169 291z" />
    <glyph glyph-name="quotedblright" unicode="&#x201d;" horiz-adv-x="520" 
d="M82 700l-110 -292l96 -1l169 291zM287 700l-110 -292l96 -1l169 291z" />
    <glyph glyph-name="bullet" unicode="&#x2022;" horiz-adv-x="383" 
d="M252 463c-44 39 -94 51 -150 36c-20 -6 -37 -13 -50 -22c-14 -9 -25 -18 -34 -28c-9 -11 -16 -21 -21 -32s-9 -22 -12 -32c-7 -25 -10 -50 -8 -77c1 -27 11 -53 28 -76c19 -27 40 -44 65 -53s51 -13 79 -12c29 1 53 8 73 19s36 25 47 40c13 17 23 36 29 57s8 43 7 65
c-2 21 -7 42 -16 63c-9 20 -21 37 -37 52z" />
    <glyph glyph-name="ellipsis" unicode="&#x2026;" horiz-adv-x="842" 
d="M128 132c-23 21 -50 28 -81 19c-22 -5 -37 -14 -46 -26c-9 -13 -15 -25 -18 -36c-3 -13 -5 -27 -4 -42c0 -15 5 -28 14 -41c11 -15 24 -24 37 -29s28 -7 43 -6s28 4 39 11c11 6 19 13 26 21c7 9 13 20 16 32c3 11 5 23 4 35c-1 11 -4 23 -9 34s-12 20 -21 28zM441 132
c-23 21 -50 28 -81 19c-22 -5 -37 -14 -46 -26c-9 -13 -15 -25 -18 -36c-3 -13 -5 -27 -4 -42c0 -15 5 -28 14 -41c11 -15 24 -24 37 -29s28 -7 43 -6s28 4 39 11c11 6 19 13 26 21c7 9 13 20 16 32c3 11 5 23 4 35c-1 11 -4 23 -9 34s-12 20 -21 28zM757 132
c-23 21 -50 28 -81 19c-22 -5 -37 -14 -46 -26c-9 -13 -15 -25 -18 -36c-3 -13 -5 -27 -4 -42c0 -15 5 -28 14 -41c11 -15 24 -24 37 -29s28 -7 43 -6s28 4 39 11c11 6 19 13 26 21c7 9 13 20 16 32c3 11 5 23 4 35c-1 11 -4 23 -9 34s-12 20 -21 28z" />
    <glyph glyph-name="perthousand" unicode="&#x2030;" horiz-adv-x="913" 
d="M461 675l-453 -633l59 -28l450 628zM189 597c-35 32 -75 42 -118 29c-16 -5 -29 -10 -40 -17s-20 -15 -27 -23s-13 -16 -16 -24c-4 -9 -7 -17 -9 -25c-5 -19 -7 -40 -6 -61s8 -41 20 -58c15 -21 33 -35 53 -42c19 -7 40 -11 63 -11c21 1 40 7 55 16s29 19 40 29
c10 13 17 29 22 46c4 17 6 34 5 51s-5 33 -12 49s-17 30 -30 41zM142 474c-4 -5 -9 -9 -16 -12s-13 -5 -20 -5c-9 -2 -17 -1 -24 2s-15 8 -22 15c-5 7 -8 15 -7 23s2 16 4 23c1 5 4 12 9 19s13 13 25 16c17 4 32 0 43 -11c11 -9 16 -21 17 -35s-2 -26 -9 -35zM523 274
c-17 15 -36 26 -55 31s-39 4 -60 -3c-16 -4 -29 -9 -40 -16s-20 -15 -27 -23s-13 -16 -17 -24c-5 -9 -8 -17 -10 -25c-5 -19 -7 -40 -6 -61c1 -22 9 -42 23 -59c13 -21 30 -34 50 -41s41 -11 62 -11c23 2 42 7 58 16c15 9 28 18 37 28c11 13 19 29 24 46s6 34 5 51
s-6 33 -13 49s-18 30 -31 42zM475 151c-7 -12 -19 -18 -36 -18c-9 0 -16 1 -23 4c-7 2 -13 7 -18 14s-8 14 -9 23c-1 8 0 15 1 22c2 7 5 14 10 21c5 6 13 11 25 14c9 2 18 2 25 1c7 -2 14 -6 22 -11c8 -9 13 -21 14 -35c1 -15 -2 -26 -11 -35zM812 274c-17 15 -36 26 -55 31
s-39 4 -60 -3c-16 -4 -29 -9 -40 -16s-20 -15 -27 -23s-13 -16 -17 -24c-5 -9 -8 -17 -10 -25c-5 -19 -7 -40 -6 -61c1 -22 9 -42 23 -59c13 -21 30 -34 50 -41s41 -11 62 -11c23 2 42 7 58 16c15 9 28 18 37 28c11 13 19 29 24 46s6 34 5 51s-6 33 -13 49s-18 30 -31 42z
M764 151c-7 -12 -19 -18 -36 -18c-9 0 -16 1 -23 4c-7 2 -13 7 -18 14s-8 14 -9 23c-1 8 0 15 1 22c2 7 5 14 10 21c5 6 13 11 25 14c9 2 18 2 25 1c7 -2 14 -6 22 -11c8 -9 13 -21 14 -35c1 -15 -2 -26 -11 -35z" />
    <glyph glyph-name="Euro" unicode="&#x20ac;" horiz-adv-x="528" 
d="M359 176c-23 0 -42 8 -57 25s-25 39 -32 66h141l-2 124l-139 1c13 60 48 89 105 88c10 0 21 -2 32 -6l33 222l-33 9c-9 3 -20 5 -32 7c-12 1 -24 2 -35 2c-49 -1 -90 -11 -125 -29c-35 -19 -62 -41 -83 -66s-36 -58 -45 -98c-10 -41 -16 -83 -17 -127l-96 2v-127l101 -2
c4 -31 10 -60 18 -87s17 -50 27 -68c10 -17 21 -34 34 -51s28 -31 47 -44s42 -24 69 -33s60 -14 100 -15c9 -1 20 0 32 1s22 2 31 5l-38 203c-3 -1 -7 -1 -11 -1c-3 -1 -7 -1 -11 -1h-14z" />
    <glyph glyph-name="trademark" unicode="&#x2122;" horiz-adv-x="585" 
d="M208 400l45 301h93l37 -152l35 152l97 9l59 -313l-100 1l-15 174l-36 -155l-71 -1l-36 150l-9 -173zM-20 620l77 2l-7 -230l109 1l-13 233l60 -1l-8 86l-213 -3z" />
    <glyph glyph-name="minus" unicode="&#x2212;" horiz-adv-x="525" 
d="M-10 261l443 6l1 135l-450 -5z" />
  </font>
</defs>
</svg>
